<svg width="300" height="291" viewBox="0 0 300 291" fill="none" xmlns="http://www.w3.org/2000/svg">
<path d="M0.5 4.99999C0.5 2.51471 2.51472 0.5 5 0.5H295C297.485 0.5 299.5 2.51472 299.5 5V286C299.5 288.485 297.485 290.5 295 290.5H5C2.51472 290.5 0.5 288.485 0.5 286V4.99999Z" fill="white" stroke="#DCEBF7"/>
<path d="M18.8525 211V201.006H20.0146V209.961H24.4512V211H18.8525ZM32.4561 207.24C32.4561 207.855 32.3763 208.405 32.2168 208.888C32.0573 209.371 31.8271 209.779 31.5264 210.111C31.2256 210.444 30.861 210.699 30.4326 210.877C30.0088 211.05 29.528 211.137 28.9902 211.137C28.4889 211.137 28.0286 211.05 27.6094 210.877C27.1947 210.699 26.8346 210.444 26.5293 210.111C26.2285 209.779 25.9938 209.371 25.8252 208.888C25.6611 208.405 25.5791 207.855 25.5791 207.24C25.5791 206.42 25.7181 205.723 25.9961 205.148C26.2741 204.57 26.6706 204.13 27.1855 203.829C27.7051 203.524 28.3226 203.371 29.0381 203.371C29.7217 203.371 30.3187 203.524 30.8291 203.829C31.3441 204.134 31.7428 204.576 32.0254 205.155C32.3125 205.729 32.4561 206.424 32.4561 207.24ZM26.7549 207.24C26.7549 207.842 26.8346 208.364 26.9941 208.806C27.1536 209.248 27.3997 209.59 27.7324 209.831C28.0651 210.073 28.4935 210.193 29.0176 210.193C29.5371 210.193 29.9632 210.073 30.2959 209.831C30.6331 209.59 30.8815 209.248 31.041 208.806C31.2005 208.364 31.2803 207.842 31.2803 207.24C31.2803 206.643 31.2005 206.128 31.041 205.695C30.8815 205.258 30.6354 204.921 30.3027 204.684C29.9701 204.447 29.5394 204.328 29.0107 204.328C28.2314 204.328 27.6595 204.586 27.2949 205.101C26.9349 205.616 26.7549 206.329 26.7549 207.24ZM37.8223 203.371C37.9727 203.371 38.1299 203.38 38.2939 203.398C38.458 203.412 38.6038 203.433 38.7314 203.46L38.5879 204.513C38.4648 204.481 38.3281 204.456 38.1777 204.438C38.0273 204.419 37.8861 204.41 37.7539 204.41C37.4531 204.41 37.1683 204.472 36.8994 204.595C36.6351 204.713 36.4027 204.886 36.2021 205.114C36.0016 205.338 35.8444 205.609 35.7305 205.928C35.6165 206.242 35.5596 206.593 35.5596 206.98V211H34.418V203.508H35.3613L35.4844 204.889H35.5322C35.6872 204.611 35.874 204.358 36.0928 204.13C36.3115 203.897 36.5645 203.713 36.8516 203.576C37.1432 203.439 37.4668 203.371 37.8223 203.371ZM43.0312 203.371C43.6693 203.371 44.2161 203.512 44.6719 203.795C45.1276 204.077 45.4762 204.474 45.7178 204.984C45.9593 205.49 46.0801 206.083 46.0801 206.762V207.466H40.9053C40.9189 208.345 41.1377 209.015 41.5615 209.476C41.9854 209.936 42.5824 210.166 43.3525 210.166C43.8265 210.166 44.2458 210.123 44.6104 210.036C44.9749 209.95 45.3532 209.822 45.7451 209.653V210.651C45.3669 210.82 44.9909 210.943 44.6172 211.021C44.248 211.098 43.8105 211.137 43.3047 211.137C42.5846 211.137 41.9557 210.991 41.418 210.699C40.8848 210.403 40.4701 209.97 40.1738 209.4C39.8776 208.831 39.7295 208.133 39.7295 207.309C39.7295 206.502 39.8639 205.805 40.1328 205.217C40.4062 204.624 40.7891 204.169 41.2812 203.85C41.778 203.531 42.3613 203.371 43.0312 203.371ZM43.0176 204.301C42.4115 204.301 41.9284 204.499 41.5684 204.896C41.2083 205.292 40.9941 205.846 40.9258 206.557H44.8906C44.8861 206.11 44.8154 205.718 44.6787 205.381C44.5465 205.039 44.3438 204.775 44.0703 204.588C43.7969 204.396 43.446 204.301 43.0176 204.301ZM56.1426 203.371C56.9674 203.371 57.5895 203.588 58.0088 204.021C58.4281 204.449 58.6377 205.139 58.6377 206.092V211H57.5166V206.146C57.5166 205.54 57.3844 205.087 57.1201 204.786C56.8604 204.481 56.473 204.328 55.958 204.328C55.2334 204.328 54.707 204.538 54.3789 204.957C54.0508 205.376 53.8867 205.994 53.8867 206.81V211H52.7588V206.146C52.7588 205.741 52.6995 205.404 52.5811 205.135C52.4671 204.866 52.2939 204.665 52.0615 204.533C51.8337 204.396 51.5443 204.328 51.1934 204.328C50.6966 204.328 50.2979 204.431 49.9971 204.636C49.6963 204.841 49.4775 205.146 49.3408 205.552C49.2087 205.953 49.1426 206.447 49.1426 207.035V211H48.0078V203.508H48.9238L49.0947 204.567H49.1562C49.3066 204.308 49.4958 204.089 49.7236 203.911C49.9515 203.733 50.2067 203.599 50.4893 203.508C50.7718 203.417 51.0726 203.371 51.3916 203.371C51.9613 203.371 52.4375 203.478 52.8203 203.692C53.2077 203.902 53.488 204.223 53.6611 204.656H53.7227C53.9688 204.223 54.306 203.902 54.7344 203.692C55.1628 203.478 55.6322 203.371 56.1426 203.371ZM65.7402 203.508V211H64.6055V203.508H65.7402ZM65.1865 200.705C65.3734 200.705 65.5329 200.767 65.665 200.89C65.8018 201.008 65.8701 201.195 65.8701 201.45C65.8701 201.701 65.8018 201.888 65.665 202.011C65.5329 202.134 65.3734 202.195 65.1865 202.195C64.9906 202.195 64.8265 202.134 64.6943 202.011C64.5667 201.888 64.5029 201.701 64.5029 201.45C64.5029 201.195 64.5667 201.008 64.6943 200.89C64.8265 200.767 64.9906 200.705 65.1865 200.705ZM71.667 203.371C72.6012 203.371 73.3464 203.692 73.9023 204.335C74.4583 204.978 74.7363 205.944 74.7363 207.233C74.7363 208.086 74.6087 208.801 74.3535 209.38C74.0983 209.959 73.7383 210.396 73.2734 210.692C72.8132 210.989 72.2686 211.137 71.6396 211.137C71.2432 211.137 70.8945 211.084 70.5938 210.979C70.293 210.875 70.0355 210.733 69.8213 210.556C69.6071 210.378 69.4294 210.184 69.2881 209.975H69.2061C69.2197 210.152 69.2357 210.367 69.2539 210.617C69.2767 210.868 69.2881 211.087 69.2881 211.273V214.35H68.1465V203.508H69.083L69.2334 204.615H69.2881C69.4339 204.387 69.6117 204.18 69.8213 203.993C70.0309 203.802 70.2861 203.651 70.5869 203.542C70.8923 203.428 71.2523 203.371 71.667 203.371ZM71.4688 204.328C70.9492 204.328 70.5299 204.428 70.2109 204.629C69.8965 204.829 69.6663 205.13 69.5205 205.531C69.3747 205.928 69.2972 206.427 69.2881 207.028V207.247C69.2881 207.881 69.3564 208.416 69.4932 208.854C69.6344 209.291 69.8646 209.624 70.1836 209.852C70.5072 210.079 70.9401 210.193 71.4824 210.193C71.9473 210.193 72.3346 210.068 72.6445 209.817C72.9544 209.567 73.1846 209.218 73.335 208.771C73.4899 208.32 73.5674 207.803 73.5674 207.22C73.5674 206.336 73.3942 205.634 73.0479 205.114C72.7061 204.59 72.1797 204.328 71.4688 204.328ZM81.5654 208.949C81.5654 209.428 81.4447 209.831 81.2031 210.159C80.9661 210.483 80.6243 210.727 80.1777 210.891C79.7357 211.055 79.207 211.137 78.5918 211.137C78.0677 211.137 77.6143 211.096 77.2314 211.014C76.8486 210.932 76.5137 210.815 76.2266 210.665V209.619C76.5319 209.77 76.8965 209.906 77.3203 210.029C77.7441 210.152 78.1771 210.214 78.6191 210.214C79.2663 210.214 79.7357 210.109 80.0273 209.899C80.319 209.69 80.4648 209.405 80.4648 209.045C80.4648 208.84 80.4056 208.66 80.2871 208.505C80.1732 208.345 79.9795 208.193 79.7061 208.047C79.4326 207.896 79.0544 207.732 78.5713 207.555C78.0928 207.372 77.6781 207.192 77.3271 207.015C76.9808 206.832 76.7119 206.611 76.5205 206.352C76.3337 206.092 76.2402 205.755 76.2402 205.34C76.2402 204.706 76.4954 204.221 77.0059 203.884C77.5208 203.542 78.1953 203.371 79.0293 203.371C79.4805 203.371 79.902 203.417 80.2939 203.508C80.6904 203.594 81.0596 203.713 81.4014 203.863L81.0186 204.772C80.7087 204.64 80.3783 204.529 80.0273 204.438C79.6764 204.346 79.3187 204.301 78.9541 204.301C78.43 204.301 78.0267 204.387 77.7441 204.561C77.4661 204.734 77.3271 204.971 77.3271 205.271C77.3271 205.504 77.391 205.695 77.5186 205.846C77.6507 205.996 77.8604 206.137 78.1475 206.27C78.4346 206.402 78.8128 206.557 79.2822 206.734C79.7516 206.908 80.1572 207.088 80.499 207.274C80.8408 207.457 81.1029 207.68 81.2852 207.944C81.472 208.204 81.5654 208.539 81.5654 208.949ZM89.5771 203.508V211H88.6475L88.4834 209.947H88.4219C88.2669 210.207 88.0664 210.426 87.8203 210.604C87.5742 210.781 87.2962 210.913 86.9863 211C86.681 211.091 86.3551 211.137 86.0088 211.137C85.4163 211.137 84.9196 211.041 84.5186 210.85C84.1175 210.658 83.8145 210.362 83.6094 209.961C83.4089 209.56 83.3086 209.045 83.3086 208.416V203.508H84.457V208.334C84.457 208.958 84.5983 209.425 84.8809 209.735C85.1634 210.041 85.5941 210.193 86.1729 210.193C86.7288 210.193 87.1709 210.089 87.499 209.879C87.8317 209.669 88.071 209.362 88.2168 208.956C88.3626 208.546 88.4355 208.045 88.4355 207.452V203.508H89.5771ZM100.111 203.371C100.936 203.371 101.558 203.588 101.978 204.021C102.397 204.449 102.606 205.139 102.606 206.092V211H101.485V206.146C101.485 205.54 101.353 205.087 101.089 204.786C100.829 204.481 100.442 204.328 99.9268 204.328C99.2021 204.328 98.6758 204.538 98.3477 204.957C98.0195 205.376 97.8555 205.994 97.8555 206.81V211H96.7275V206.146C96.7275 205.741 96.6683 205.404 96.5498 205.135C96.4359 204.866 96.2627 204.665 96.0303 204.533C95.8024 204.396 95.513 204.328 95.1621 204.328C94.6654 204.328 94.2666 204.431 93.9658 204.636C93.665 204.841 93.4463 205.146 93.3096 205.552C93.1774 205.953 93.1113 206.447 93.1113 207.035V211H91.9766V203.508H92.8926L93.0635 204.567H93.125C93.2754 204.308 93.4645 204.089 93.6924 203.911C93.9202 203.733 94.1755 203.599 94.458 203.508C94.7406 203.417 95.0413 203.371 95.3604 203.371C95.93 203.371 96.4062 203.478 96.7891 203.692C97.1764 203.902 97.4567 204.223 97.6299 204.656H97.6914C97.9375 204.223 98.2747 203.902 98.7031 203.692C99.1315 203.478 99.6009 203.371 100.111 203.371ZM111.24 211.137C110.292 211.137 109.54 210.813 108.984 210.166C108.433 209.519 108.157 208.557 108.157 207.281C108.157 205.992 108.44 205.019 109.005 204.362C109.57 203.701 110.322 203.371 111.261 203.371C111.657 203.371 112.004 203.424 112.3 203.528C112.596 203.633 112.851 203.774 113.065 203.952C113.28 204.125 113.46 204.324 113.605 204.547H113.688C113.669 204.406 113.651 204.212 113.633 203.966C113.615 203.72 113.605 203.519 113.605 203.364V200.363H114.74V211H113.824L113.653 209.934H113.605C113.464 210.157 113.284 210.36 113.065 210.542C112.851 210.724 112.594 210.87 112.293 210.979C111.997 211.084 111.646 211.137 111.24 211.137ZM111.418 210.193C112.22 210.193 112.787 209.965 113.12 209.51C113.453 209.054 113.619 208.377 113.619 207.479V207.274C113.619 206.322 113.46 205.59 113.141 205.08C112.826 204.57 112.252 204.314 111.418 204.314C110.721 204.314 110.199 204.583 109.853 205.121C109.506 205.654 109.333 206.383 109.333 207.309C109.333 208.229 109.504 208.94 109.846 209.441C110.192 209.943 110.716 210.193 111.418 210.193ZM123.606 207.24C123.606 207.855 123.527 208.405 123.367 208.888C123.208 209.371 122.978 209.779 122.677 210.111C122.376 210.444 122.011 210.699 121.583 210.877C121.159 211.05 120.678 211.137 120.141 211.137C119.639 211.137 119.179 211.05 118.76 210.877C118.345 210.699 117.985 210.444 117.68 210.111C117.379 209.779 117.144 209.371 116.976 208.888C116.812 208.405 116.729 207.855 116.729 207.24C116.729 206.42 116.868 205.723 117.146 205.148C117.424 204.57 117.821 204.13 118.336 203.829C118.855 203.524 119.473 203.371 120.188 203.371C120.872 203.371 121.469 203.524 121.979 203.829C122.494 204.134 122.893 204.576 123.176 205.155C123.463 205.729 123.606 206.424 123.606 207.24ZM117.905 207.24C117.905 207.842 117.985 208.364 118.145 208.806C118.304 209.248 118.55 209.59 118.883 209.831C119.215 210.073 119.644 210.193 120.168 210.193C120.688 210.193 121.114 210.073 121.446 209.831C121.784 209.59 122.032 209.248 122.191 208.806C122.351 208.364 122.431 207.842 122.431 207.24C122.431 206.643 122.351 206.128 122.191 205.695C122.032 205.258 121.786 204.921 121.453 204.684C121.12 204.447 120.69 204.328 120.161 204.328C119.382 204.328 118.81 204.586 118.445 205.101C118.085 205.616 117.905 206.329 117.905 207.24ZM126.71 211H125.568V200.363H126.71V211ZM135.569 207.24C135.569 207.855 135.49 208.405 135.33 208.888C135.171 209.371 134.94 209.779 134.64 210.111C134.339 210.444 133.974 210.699 133.546 210.877C133.122 211.05 132.641 211.137 132.104 211.137C131.602 211.137 131.142 211.05 130.723 210.877C130.308 210.699 129.948 210.444 129.643 210.111C129.342 209.779 129.107 209.371 128.938 208.888C128.774 208.405 128.692 207.855 128.692 207.24C128.692 206.42 128.831 205.723 129.109 205.148C129.387 204.57 129.784 204.13 130.299 203.829C130.818 203.524 131.436 203.371 132.151 203.371C132.835 203.371 133.432 203.524 133.942 203.829C134.457 204.134 134.856 204.576 135.139 205.155C135.426 205.729 135.569 206.424 135.569 207.24ZM129.868 207.24C129.868 207.842 129.948 208.364 130.107 208.806C130.267 209.248 130.513 209.59 130.846 209.831C131.178 210.073 131.607 210.193 132.131 210.193C132.65 210.193 133.076 210.073 133.409 209.831C133.746 209.59 133.995 209.248 134.154 208.806C134.314 208.364 134.394 207.842 134.394 207.24C134.394 206.643 134.314 206.128 134.154 205.695C133.995 205.258 133.749 204.921 133.416 204.684C133.083 204.447 132.653 204.328 132.124 204.328C131.345 204.328 130.773 204.586 130.408 205.101C130.048 205.616 129.868 206.329 129.868 207.24ZM140.936 203.371C141.086 203.371 141.243 203.38 141.407 203.398C141.571 203.412 141.717 203.433 141.845 203.46L141.701 204.513C141.578 204.481 141.441 204.456 141.291 204.438C141.141 204.419 140.999 204.41 140.867 204.41C140.566 204.41 140.282 204.472 140.013 204.595C139.748 204.713 139.516 204.886 139.315 205.114C139.115 205.338 138.958 205.609 138.844 205.928C138.73 206.242 138.673 206.593 138.673 206.98V211H137.531V203.508H138.475L138.598 204.889H138.646C138.8 204.611 138.987 204.358 139.206 204.13C139.425 203.897 139.678 203.713 139.965 203.576C140.257 203.439 140.58 203.371 140.936 203.371ZM151.743 208.949C151.743 209.428 151.622 209.831 151.381 210.159C151.144 210.483 150.802 210.727 150.355 210.891C149.913 211.055 149.385 211.137 148.77 211.137C148.245 211.137 147.792 211.096 147.409 211.014C147.026 210.932 146.691 210.815 146.404 210.665V209.619C146.71 209.77 147.074 209.906 147.498 210.029C147.922 210.152 148.355 210.214 148.797 210.214C149.444 210.214 149.913 210.109 150.205 209.899C150.497 209.69 150.643 209.405 150.643 209.045C150.643 208.84 150.583 208.66 150.465 208.505C150.351 208.345 150.157 208.193 149.884 208.047C149.61 207.896 149.232 207.732 148.749 207.555C148.271 207.372 147.856 207.192 147.505 207.015C147.159 206.832 146.89 206.611 146.698 206.352C146.511 206.092 146.418 205.755 146.418 205.34C146.418 204.706 146.673 204.221 147.184 203.884C147.699 203.542 148.373 203.371 149.207 203.371C149.658 203.371 150.08 203.417 150.472 203.508C150.868 203.594 151.237 203.713 151.579 203.863L151.196 204.772C150.886 204.64 150.556 204.529 150.205 204.438C149.854 204.346 149.496 204.301 149.132 204.301C148.608 204.301 148.204 204.387 147.922 204.561C147.644 204.734 147.505 204.971 147.505 205.271C147.505 205.504 147.569 205.695 147.696 205.846C147.828 205.996 148.038 206.137 148.325 206.27C148.612 206.402 148.991 206.557 149.46 206.734C149.929 206.908 150.335 207.088 150.677 207.274C151.019 207.457 151.281 207.68 151.463 207.944C151.65 208.204 151.743 208.539 151.743 208.949ZM154.703 203.508V211H153.568V203.508H154.703ZM154.149 200.705C154.336 200.705 154.496 200.767 154.628 200.89C154.765 201.008 154.833 201.195 154.833 201.45C154.833 201.701 154.765 201.888 154.628 202.011C154.496 202.134 154.336 202.195 154.149 202.195C153.953 202.195 153.789 202.134 153.657 202.011C153.53 201.888 153.466 201.701 153.466 201.45C153.466 201.195 153.53 201.008 153.657 200.89C153.789 200.767 153.953 200.705 154.149 200.705ZM159.529 210.207C159.716 210.207 159.908 210.191 160.104 210.159C160.299 210.127 160.459 210.089 160.582 210.043V210.925C160.45 210.984 160.265 211.034 160.028 211.075C159.796 211.116 159.568 211.137 159.345 211.137C158.948 211.137 158.588 211.068 158.265 210.932C157.941 210.79 157.681 210.553 157.485 210.221C157.294 209.888 157.198 209.428 157.198 208.84V204.396H156.132V203.843L157.205 203.398L157.656 201.771H158.34V203.508H160.534V204.396H158.34V208.806C158.34 209.275 158.447 209.626 158.661 209.858C158.88 210.091 159.169 210.207 159.529 210.207ZM168.539 203.385C169.432 203.385 170.095 203.585 170.528 203.986C170.961 204.387 171.178 205.028 171.178 205.907V211H170.351L170.132 209.893H170.077C169.868 210.166 169.649 210.396 169.421 210.583C169.193 210.765 168.929 210.904 168.628 211C168.332 211.091 167.967 211.137 167.534 211.137C167.078 211.137 166.673 211.057 166.317 210.897C165.966 210.738 165.688 210.496 165.483 210.173C165.283 209.849 165.183 209.439 165.183 208.942C165.183 208.195 165.479 207.621 166.071 207.22C166.664 206.819 167.566 206.6 168.778 206.563L170.07 206.509V206.051C170.07 205.404 169.931 204.95 169.653 204.69C169.375 204.431 168.983 204.301 168.478 204.301C168.086 204.301 167.712 204.358 167.356 204.472C167.001 204.586 166.664 204.72 166.345 204.875L165.996 204.014C166.333 203.84 166.721 203.692 167.158 203.569C167.596 203.446 168.056 203.385 168.539 203.385ZM170.057 207.309L168.915 207.356C167.981 207.393 167.322 207.546 166.939 207.814C166.557 208.083 166.365 208.464 166.365 208.956C166.365 209.384 166.495 209.701 166.755 209.906C167.015 210.111 167.359 210.214 167.787 210.214C168.452 210.214 168.997 210.029 169.421 209.66C169.845 209.291 170.057 208.737 170.057 207.999V207.309ZM181.65 203.371C182.475 203.371 183.097 203.588 183.517 204.021C183.936 204.449 184.146 205.139 184.146 206.092V211H183.024V206.146C183.024 205.54 182.892 205.087 182.628 204.786C182.368 204.481 181.981 204.328 181.466 204.328C180.741 204.328 180.215 204.538 179.887 204.957C179.559 205.376 179.395 205.994 179.395 206.81V211H178.267V206.146C178.267 205.741 178.207 205.404 178.089 205.135C177.975 204.866 177.802 204.665 177.569 204.533C177.341 204.396 177.052 204.328 176.701 204.328C176.204 204.328 175.806 204.431 175.505 204.636C175.204 204.841 174.985 205.146 174.849 205.552C174.716 205.953 174.65 206.447 174.65 207.035V211H173.516V203.508H174.432L174.603 204.567H174.664C174.814 204.308 175.004 204.089 175.231 203.911C175.459 203.733 175.715 203.599 175.997 203.508C176.28 203.417 176.58 203.371 176.899 203.371C177.469 203.371 177.945 203.478 178.328 203.692C178.715 203.902 178.996 204.223 179.169 204.656H179.23C179.477 204.223 179.814 203.902 180.242 203.692C180.671 203.478 181.14 203.371 181.65 203.371ZM189.361 203.371C189.999 203.371 190.546 203.512 191.002 203.795C191.458 204.077 191.806 204.474 192.048 204.984C192.289 205.49 192.41 206.083 192.41 206.762V207.466H187.235C187.249 208.345 187.468 209.015 187.892 209.476C188.315 209.936 188.912 210.166 189.683 210.166C190.157 210.166 190.576 210.123 190.94 210.036C191.305 209.95 191.683 209.822 192.075 209.653V210.651C191.697 210.82 191.321 210.943 190.947 211.021C190.578 211.098 190.141 211.137 189.635 211.137C188.915 211.137 188.286 210.991 187.748 210.699C187.215 210.403 186.8 209.97 186.504 209.4C186.208 208.831 186.06 208.133 186.06 207.309C186.06 206.502 186.194 205.805 186.463 205.217C186.736 204.624 187.119 204.169 187.611 203.85C188.108 203.531 188.691 203.371 189.361 203.371ZM189.348 204.301C188.742 204.301 188.258 204.499 187.898 204.896C187.538 205.292 187.324 205.846 187.256 206.557H191.221C191.216 206.11 191.146 205.718 191.009 205.381C190.877 205.039 190.674 204.775 190.4 204.588C190.127 204.396 189.776 204.301 189.348 204.301ZM196.758 210.207C196.945 210.207 197.136 210.191 197.332 210.159C197.528 210.127 197.688 210.089 197.811 210.043V210.925C197.678 210.984 197.494 211.034 197.257 211.075C197.024 211.116 196.797 211.137 196.573 211.137C196.177 211.137 195.817 211.068 195.493 210.932C195.17 210.79 194.91 210.553 194.714 210.221C194.522 209.888 194.427 209.428 194.427 208.84V204.396H193.36V203.843L194.434 203.398L194.885 201.771H195.568V203.508H197.763V204.396H195.568V208.806C195.568 209.275 195.675 209.626 195.89 209.858C196.108 210.091 196.398 210.207 196.758 210.207ZM200.627 209.373L200.716 209.53C200.634 209.863 200.529 210.218 200.401 210.597C200.278 210.975 200.142 211.353 199.991 211.731C199.845 212.114 199.697 212.472 199.547 212.805H198.699C198.795 212.44 198.888 212.055 198.979 211.649C199.071 211.248 199.153 210.852 199.226 210.46C199.303 210.063 199.365 209.701 199.41 209.373H200.627ZM209.589 211.137C208.914 211.137 208.32 210.998 207.805 210.72C207.29 210.442 206.889 210.018 206.602 209.448C206.314 208.879 206.171 208.161 206.171 207.295C206.171 206.388 206.321 205.647 206.622 205.073C206.927 204.494 207.347 204.066 207.88 203.788C208.413 203.51 209.019 203.371 209.698 203.371C210.072 203.371 210.432 203.41 210.778 203.487C211.129 203.56 211.416 203.654 211.64 203.768L211.298 204.718C211.07 204.627 210.806 204.545 210.505 204.472C210.209 204.399 209.931 204.362 209.671 204.362C209.151 204.362 208.718 204.474 208.372 204.697C208.03 204.921 207.773 205.249 207.6 205.682C207.431 206.115 207.347 206.648 207.347 207.281C207.347 207.887 207.429 208.405 207.593 208.833C207.761 209.261 208.01 209.59 208.338 209.817C208.671 210.041 209.085 210.152 209.582 210.152C209.979 210.152 210.336 210.111 210.655 210.029C210.974 209.943 211.264 209.842 211.523 209.729V210.74C211.273 210.868 210.993 210.966 210.683 211.034C210.377 211.103 210.013 211.137 209.589 211.137ZM219.761 207.24C219.761 207.855 219.681 208.405 219.521 208.888C219.362 209.371 219.132 209.779 218.831 210.111C218.53 210.444 218.166 210.699 217.737 210.877C217.313 211.05 216.833 211.137 216.295 211.137C215.794 211.137 215.333 211.05 214.914 210.877C214.499 210.699 214.139 210.444 213.834 210.111C213.533 209.779 213.299 209.371 213.13 208.888C212.966 208.405 212.884 207.855 212.884 207.24C212.884 206.42 213.023 205.723 213.301 205.148C213.579 204.57 213.975 204.13 214.49 203.829C215.01 203.524 215.627 203.371 216.343 203.371C217.026 203.371 217.623 203.524 218.134 203.829C218.649 204.134 219.048 204.576 219.33 205.155C219.617 205.729 219.761 206.424 219.761 207.24ZM214.06 207.24C214.06 207.842 214.139 208.364 214.299 208.806C214.458 209.248 214.704 209.59 215.037 209.831C215.37 210.073 215.798 210.193 216.322 210.193C216.842 210.193 217.268 210.073 217.601 209.831C217.938 209.59 218.186 209.248 218.346 208.806C218.505 208.364 218.585 207.842 218.585 207.24C218.585 206.643 218.505 206.128 218.346 205.695C218.186 205.258 217.94 204.921 217.607 204.684C217.275 204.447 216.844 204.328 216.315 204.328C215.536 204.328 214.964 204.586 214.6 205.101C214.24 205.616 214.06 206.329 214.06 207.24ZM225.271 203.371C226.159 203.371 226.831 203.59 227.287 204.027C227.743 204.46 227.971 205.158 227.971 206.119V211H226.85V206.194C226.85 205.57 226.706 205.103 226.419 204.793C226.136 204.483 225.701 204.328 225.113 204.328C224.284 204.328 223.701 204.563 223.363 205.032C223.026 205.502 222.857 206.183 222.857 207.076V211H221.723V203.508H222.639L222.81 204.588H222.871C223.031 204.324 223.233 204.103 223.479 203.925C223.726 203.743 224.001 203.606 224.307 203.515C224.612 203.419 224.933 203.371 225.271 203.371ZM235.155 208.949C235.155 209.428 235.035 209.831 234.793 210.159C234.556 210.483 234.214 210.727 233.768 210.891C233.326 211.055 232.797 211.137 232.182 211.137C231.658 211.137 231.204 211.096 230.821 211.014C230.438 210.932 230.104 210.815 229.816 210.665V209.619C230.122 209.77 230.486 209.906 230.91 210.029C231.334 210.152 231.767 210.214 232.209 210.214C232.856 210.214 233.326 210.109 233.617 209.899C233.909 209.69 234.055 209.405 234.055 209.045C234.055 208.84 233.995 208.66 233.877 208.505C233.763 208.345 233.569 208.193 233.296 208.047C233.022 207.896 232.644 207.732 232.161 207.555C231.683 207.372 231.268 207.192 230.917 207.015C230.571 206.832 230.302 206.611 230.11 206.352C229.924 206.092 229.83 205.755 229.83 205.34C229.83 204.706 230.085 204.221 230.596 203.884C231.111 203.542 231.785 203.371 232.619 203.371C233.07 203.371 233.492 203.417 233.884 203.508C234.28 203.594 234.649 203.713 234.991 203.863L234.608 204.772C234.299 204.64 233.968 204.529 233.617 204.438C233.266 204.346 232.909 204.301 232.544 204.301C232.02 204.301 231.617 204.387 231.334 204.561C231.056 204.734 230.917 204.971 230.917 205.271C230.917 205.504 230.981 205.695 231.108 205.846C231.241 205.996 231.45 206.137 231.737 206.27C232.024 206.402 232.403 206.557 232.872 206.734C233.341 206.908 233.747 207.088 234.089 207.274C234.431 207.457 234.693 207.68 234.875 207.944C235.062 208.204 235.155 208.539 235.155 208.949ZM239.865 203.371C240.503 203.371 241.05 203.512 241.506 203.795C241.962 204.077 242.31 204.474 242.552 204.984C242.793 205.49 242.914 206.083 242.914 206.762V207.466H237.739C237.753 208.345 237.972 209.015 238.396 209.476C238.819 209.936 239.416 210.166 240.187 210.166C240.66 210.166 241.08 210.123 241.444 210.036C241.809 209.95 242.187 209.822 242.579 209.653V210.651C242.201 210.82 241.825 210.943 241.451 211.021C241.082 211.098 240.645 211.137 240.139 211.137C239.419 211.137 238.79 210.991 238.252 210.699C237.719 210.403 237.304 209.97 237.008 209.4C236.712 208.831 236.563 208.133 236.563 207.309C236.563 206.502 236.698 205.805 236.967 205.217C237.24 204.624 237.623 204.169 238.115 203.85C238.612 203.531 239.195 203.371 239.865 203.371ZM239.852 204.301C239.245 204.301 238.762 204.499 238.402 204.896C238.042 205.292 237.828 205.846 237.76 206.557H241.725C241.72 206.11 241.649 205.718 241.513 205.381C241.381 205.039 241.178 204.775 240.904 204.588C240.631 204.396 240.28 204.301 239.852 204.301ZM247.843 211.137C247.168 211.137 246.574 210.998 246.059 210.72C245.544 210.442 245.143 210.018 244.855 209.448C244.568 208.879 244.425 208.161 244.425 207.295C244.425 206.388 244.575 205.647 244.876 205.073C245.181 204.494 245.601 204.066 246.134 203.788C246.667 203.51 247.273 203.371 247.952 203.371C248.326 203.371 248.686 203.41 249.032 203.487C249.383 203.56 249.67 203.654 249.894 203.768L249.552 204.718C249.324 204.627 249.06 204.545 248.759 204.472C248.463 204.399 248.185 204.362 247.925 204.362C247.405 204.362 246.972 204.474 246.626 204.697C246.284 204.921 246.027 205.249 245.854 205.682C245.685 206.115 245.601 206.648 245.601 207.281C245.601 207.887 245.683 208.405 245.847 208.833C246.015 209.261 246.264 209.59 246.592 209.817C246.924 210.041 247.339 210.152 247.836 210.152C248.232 210.152 248.59 210.111 248.909 210.029C249.228 209.943 249.518 209.842 249.777 209.729V210.74C249.527 210.868 249.246 210.966 248.937 211.034C248.631 211.103 248.267 211.137 247.843 211.137ZM253.975 210.207C254.161 210.207 254.353 210.191 254.549 210.159C254.745 210.127 254.904 210.089 255.027 210.043V210.925C254.895 210.984 254.711 211.034 254.474 211.075C254.241 211.116 254.013 211.137 253.79 211.137C253.394 211.137 253.034 211.068 252.71 210.932C252.386 210.79 252.127 210.553 251.931 210.221C251.739 209.888 251.644 209.428 251.644 208.84V204.396H250.577V203.843L251.65 203.398L252.102 201.771H252.785V203.508H254.979V204.396H252.785V208.806C252.785 209.275 252.892 209.626 253.106 209.858C253.325 210.091 253.615 210.207 253.975 210.207ZM259.43 203.371C260.068 203.371 260.615 203.512 261.07 203.795C261.526 204.077 261.875 204.474 262.116 204.984C262.358 205.49 262.479 206.083 262.479 206.762V207.466H257.304C257.317 208.345 257.536 209.015 257.96 209.476C258.384 209.936 258.981 210.166 259.751 210.166C260.225 210.166 260.644 210.123 261.009 210.036C261.373 209.95 261.752 209.822 262.144 209.653V210.651C261.765 210.82 261.389 210.943 261.016 211.021C260.646 211.098 260.209 211.137 259.703 211.137C258.983 211.137 258.354 210.991 257.816 210.699C257.283 210.403 256.868 209.97 256.572 209.4C256.276 208.831 256.128 208.133 256.128 207.309C256.128 206.502 256.262 205.805 256.531 205.217C256.805 204.624 257.188 204.169 257.68 203.85C258.176 203.531 258.76 203.371 259.43 203.371ZM259.416 204.301C258.81 204.301 258.327 204.499 257.967 204.896C257.607 205.292 257.393 205.846 257.324 206.557H261.289C261.285 206.11 261.214 205.718 261.077 205.381C260.945 205.039 260.742 204.775 260.469 204.588C260.195 204.396 259.844 204.301 259.416 204.301ZM266.826 210.207C267.013 210.207 267.204 210.191 267.4 210.159C267.596 210.127 267.756 210.089 267.879 210.043V210.925C267.747 210.984 267.562 211.034 267.325 211.075C267.093 211.116 266.865 211.137 266.642 211.137C266.245 211.137 265.885 211.068 265.562 210.932C265.238 210.79 264.978 210.553 264.782 210.221C264.591 209.888 264.495 209.428 264.495 208.84V204.396H263.429V203.843L264.502 203.398L264.953 201.771H265.637V203.508H267.831V204.396H265.637V208.806C265.637 209.275 265.744 209.626 265.958 209.858C266.177 210.091 266.466 210.207 266.826 210.207ZM275.583 203.508V211H274.653L274.489 209.947H274.428C274.273 210.207 274.072 210.426 273.826 210.604C273.58 210.781 273.302 210.913 272.992 211C272.687 211.091 272.361 211.137 272.015 211.137C271.422 211.137 270.925 211.041 270.524 210.85C270.123 210.658 269.82 210.362 269.615 209.961C269.415 209.56 269.314 209.045 269.314 208.416V203.508H270.463V208.334C270.463 208.958 270.604 209.425 270.887 209.735C271.169 210.041 271.6 210.193 272.179 210.193C272.735 210.193 273.177 210.089 273.505 209.879C273.838 209.669 274.077 209.362 274.223 208.956C274.368 208.546 274.441 208.045 274.441 207.452V203.508H275.583ZM281.387 203.371C281.537 203.371 281.694 203.38 281.858 203.398C282.022 203.412 282.168 203.433 282.296 203.46L282.152 204.513C282.029 204.481 281.893 204.456 281.742 204.438C281.592 204.419 281.451 204.41 281.318 204.41C281.018 204.41 280.733 204.472 280.464 204.595C280.2 204.713 279.967 204.886 279.767 205.114C279.566 205.338 279.409 205.609 279.295 205.928C279.181 206.242 279.124 206.593 279.124 206.98V211H277.982V203.508H278.926L279.049 204.889H279.097C279.252 204.611 279.438 204.358 279.657 204.13C279.876 203.897 280.129 203.713 280.416 203.576C280.708 203.439 281.031 203.371 281.387 203.371ZM25.5928 228.385C26.486 228.385 27.1491 228.585 27.582 228.986C28.015 229.387 28.2314 230.028 28.2314 230.907V236H27.4043L27.1855 234.893H27.1309C26.9212 235.166 26.7025 235.396 26.4746 235.583C26.2467 235.765 25.9824 235.904 25.6816 236C25.3854 236.091 25.0208 236.137 24.5879 236.137C24.1322 236.137 23.7266 236.057 23.3711 235.897C23.0202 235.738 22.7422 235.496 22.5371 235.173C22.3366 234.849 22.2363 234.439 22.2363 233.942C22.2363 233.195 22.5326 232.621 23.125 232.22C23.7174 231.819 24.6198 231.6 25.832 231.563L27.124 231.509V231.051C27.124 230.404 26.985 229.95 26.707 229.69C26.429 229.431 26.0371 229.301 25.5312 229.301C25.1393 229.301 24.7656 229.358 24.4102 229.472C24.0547 229.586 23.7174 229.72 23.3984 229.875L23.0498 229.014C23.387 228.84 23.7744 228.692 24.2119 228.569C24.6494 228.446 25.1097 228.385 25.5928 228.385ZM27.1104 232.309L25.9688 232.356C25.0345 232.393 24.376 232.546 23.9932 232.814C23.6104 233.083 23.4189 233.464 23.4189 233.956C23.4189 234.384 23.5488 234.701 23.8086 234.906C24.0684 235.111 24.4124 235.214 24.8408 235.214C25.5062 235.214 26.0508 235.029 26.4746 234.66C26.8984 234.291 27.1104 233.737 27.1104 232.999V232.309ZM33.2354 236.137C32.2874 236.137 31.5355 235.813 30.9795 235.166C30.4281 234.519 30.1523 233.557 30.1523 232.281C30.1523 230.992 30.4349 230.019 31 229.362C31.5651 228.701 32.3171 228.371 33.2559 228.371C33.6523 228.371 33.9987 228.424 34.2949 228.528C34.5911 228.633 34.8464 228.774 35.0605 228.952C35.2747 229.125 35.4548 229.324 35.6006 229.547H35.6826C35.6644 229.406 35.6462 229.212 35.6279 228.966C35.6097 228.72 35.6006 228.519 35.6006 228.364V225.363H36.7354V236H35.8193L35.6484 234.934H35.6006C35.4593 235.157 35.2793 235.36 35.0605 235.542C34.8464 235.724 34.5889 235.87 34.2881 235.979C33.9919 236.084 33.641 236.137 33.2354 236.137ZM33.4131 235.193C34.2152 235.193 34.7826 234.965 35.1152 234.51C35.4479 234.054 35.6143 233.377 35.6143 232.479V232.274C35.6143 231.322 35.4548 230.59 35.1357 230.08C34.8213 229.57 34.2471 229.314 33.4131 229.314C32.7158 229.314 32.194 229.583 31.8477 230.121C31.5013 230.654 31.3281 231.383 31.3281 232.309C31.3281 233.229 31.499 233.94 31.8408 234.441C32.1872 234.943 32.7113 235.193 33.4131 235.193ZM40.2764 228.508V236H39.1416V228.508H40.2764ZM39.7227 225.705C39.9095 225.705 40.069 225.767 40.2012 225.89C40.3379 226.008 40.4062 226.195 40.4062 226.45C40.4062 226.701 40.3379 226.888 40.2012 227.011C40.069 227.134 39.9095 227.195 39.7227 227.195C39.5267 227.195 39.3626 227.134 39.2305 227.011C39.1029 226.888 39.0391 226.701 39.0391 226.45C39.0391 226.195 39.1029 226.008 39.2305 225.89C39.3626 225.767 39.5267 225.705 39.7227 225.705ZM46.2031 228.371C47.1374 228.371 47.8825 228.692 48.4385 229.335C48.9945 229.978 49.2725 230.944 49.2725 232.233C49.2725 233.086 49.1449 233.801 48.8896 234.38C48.6344 234.959 48.2744 235.396 47.8096 235.692C47.3493 235.989 46.8047 236.137 46.1758 236.137C45.7793 236.137 45.4307 236.084 45.1299 235.979C44.8291 235.875 44.5716 235.733 44.3574 235.556C44.1432 235.378 43.9655 235.184 43.8242 234.975H43.7422C43.7559 235.152 43.7718 235.367 43.79 235.617C43.8128 235.868 43.8242 236.087 43.8242 236.273V239.35H42.6826V228.508H43.6191L43.7695 229.615H43.8242C43.9701 229.387 44.1478 229.18 44.3574 228.993C44.5671 228.802 44.8223 228.651 45.123 228.542C45.4284 228.428 45.7884 228.371 46.2031 228.371ZM46.0049 229.328C45.4854 229.328 45.0661 229.428 44.7471 229.629C44.4326 229.829 44.2025 230.13 44.0566 230.531C43.9108 230.928 43.8333 231.427 43.8242 232.028V232.247C43.8242 232.881 43.8926 233.416 44.0293 233.854C44.1706 234.291 44.4007 234.624 44.7197 234.852C45.0433 235.079 45.4762 235.193 46.0186 235.193C46.4834 235.193 46.8708 235.068 47.1807 234.817C47.4906 234.567 47.7207 234.218 47.8711 233.771C48.026 233.32 48.1035 232.803 48.1035 232.22C48.1035 231.336 47.9303 230.634 47.584 230.114C47.2422 229.59 46.7158 229.328 46.0049 229.328ZM52.3896 228.508V236H51.2549V228.508H52.3896ZM51.8359 225.705C52.0228 225.705 52.1823 225.767 52.3145 225.89C52.4512 226.008 52.5195 226.195 52.5195 226.45C52.5195 226.701 52.4512 226.888 52.3145 227.011C52.1823 227.134 52.0228 227.195 51.8359 227.195C51.64 227.195 51.4759 227.134 51.3438 227.011C51.2161 226.888 51.1523 226.701 51.1523 226.45C51.1523 226.195 51.2161 226.008 51.3438 225.89C51.4759 225.767 51.64 225.705 51.8359 225.705ZM59.6426 233.949C59.6426 234.428 59.5218 234.831 59.2803 235.159C59.0433 235.483 58.7015 235.727 58.2549 235.891C57.8128 236.055 57.2842 236.137 56.6689 236.137C56.1449 236.137 55.6914 236.096 55.3086 236.014C54.9258 235.932 54.5908 235.815 54.3037 235.665V234.619C54.609 234.77 54.9736 234.906 55.3975 235.029C55.8213 235.152 56.2542 235.214 56.6963 235.214C57.3434 235.214 57.8128 235.109 58.1045 234.899C58.3962 234.69 58.542 234.405 58.542 234.045C58.542 233.84 58.4827 233.66 58.3643 233.505C58.2503 233.345 58.0566 233.193 57.7832 233.047C57.5098 232.896 57.1315 232.732 56.6484 232.555C56.1699 232.372 55.7552 232.192 55.4043 232.015C55.0579 231.832 54.7891 231.611 54.5977 231.352C54.4108 231.092 54.3174 230.755 54.3174 230.34C54.3174 229.706 54.5726 229.221 55.083 228.884C55.598 228.542 56.2725 228.371 57.1064 228.371C57.5576 228.371 57.9792 228.417 58.3711 228.508C58.7676 228.594 59.1367 228.713 59.4785 228.863L59.0957 229.772C58.7858 229.64 58.4554 229.529 58.1045 229.438C57.7536 229.346 57.3958 229.301 57.0312 229.301C56.5072 229.301 56.1038 229.387 55.8213 229.561C55.5433 229.734 55.4043 229.971 55.4043 230.271C55.4043 230.504 55.4681 230.695 55.5957 230.846C55.7279 230.996 55.9375 231.137 56.2246 231.27C56.5117 231.402 56.89 231.557 57.3594 231.734C57.8288 231.908 58.2344 232.088 58.5762 232.274C58.918 232.457 59.18 232.68 59.3623 232.944C59.5492 233.204 59.6426 233.539 59.6426 233.949ZM64.4688 236.137C63.7943 236.137 63.1995 235.998 62.6846 235.72C62.1696 235.442 61.7686 235.018 61.4814 234.448C61.1943 233.879 61.0508 233.161 61.0508 232.295C61.0508 231.388 61.2012 230.647 61.502 230.073C61.8073 229.494 62.2266 229.066 62.7598 228.788C63.293 228.51 63.8991 228.371 64.5781 228.371C64.9518 228.371 65.3118 228.41 65.6582 228.487C66.0091 228.56 66.2962 228.654 66.5195 228.768L66.1777 229.718C65.9499 229.627 65.6855 229.545 65.3848 229.472C65.0885 229.399 64.8105 229.362 64.5508 229.362C64.0312 229.362 63.5983 229.474 63.252 229.697C62.9102 229.921 62.6527 230.249 62.4795 230.682C62.3109 231.115 62.2266 231.648 62.2266 232.281C62.2266 232.887 62.3086 233.405 62.4727 233.833C62.6413 234.261 62.8896 234.59 63.2178 234.817C63.5505 235.041 63.9652 235.152 64.4619 235.152C64.8584 235.152 65.2161 235.111 65.5352 235.029C65.8542 234.943 66.1436 234.842 66.4033 234.729V235.74C66.1527 235.868 65.8724 235.966 65.5625 236.034C65.2572 236.103 64.8926 236.137 64.4688 236.137ZM69.3154 228.508V236H68.1807V228.508H69.3154ZM68.7617 225.705C68.9486 225.705 69.1081 225.767 69.2402 225.89C69.377 226.008 69.4453 226.195 69.4453 226.45C69.4453 226.701 69.377 226.888 69.2402 227.011C69.1081 227.134 68.9486 227.195 68.7617 227.195C68.5658 227.195 68.4017 227.134 68.2695 227.011C68.1419 226.888 68.0781 226.701 68.0781 226.45C68.0781 226.195 68.1419 226.008 68.2695 225.89C68.4017 225.767 68.5658 225.705 68.7617 225.705ZM75.2695 228.371C76.1582 228.371 76.8304 228.59 77.2861 229.027C77.7419 229.46 77.9697 230.158 77.9697 231.119V236H76.8486V231.194C76.8486 230.57 76.7051 230.103 76.418 229.793C76.1354 229.483 75.7002 229.328 75.1123 229.328C74.2829 229.328 73.6995 229.563 73.3623 230.032C73.0251 230.502 72.8564 231.183 72.8564 232.076V236H71.7217V228.508H72.6377L72.8086 229.588H72.8701C73.0296 229.324 73.2324 229.103 73.4785 228.925C73.7246 228.743 74.0003 228.606 74.3057 228.515C74.611 228.419 74.9323 228.371 75.2695 228.371ZM82.3994 239.363C81.415 239.363 80.6562 239.179 80.123 238.81C79.5898 238.445 79.3232 237.932 79.3232 237.271C79.3232 236.802 79.4714 236.401 79.7676 236.068C80.0684 235.736 80.4831 235.515 81.0117 235.405C80.8158 235.314 80.6471 235.177 80.5059 234.995C80.3691 234.813 80.3008 234.603 80.3008 234.366C80.3008 234.093 80.376 233.854 80.5264 233.648C80.6813 233.439 80.916 233.238 81.2305 233.047C80.8385 232.887 80.5195 232.618 80.2734 232.24C80.0319 231.857 79.9111 231.413 79.9111 230.907C79.9111 230.369 80.0228 229.911 80.2461 229.533C80.4694 229.15 80.793 228.859 81.2168 228.658C81.6406 228.458 82.1533 228.357 82.7549 228.357C82.887 228.357 83.0192 228.364 83.1514 228.378C83.2881 228.387 83.418 228.403 83.541 228.426C83.6641 228.444 83.7712 228.467 83.8623 228.494H86.4326V229.226L85.0518 229.396C85.1885 229.574 85.3024 229.788 85.3936 230.039C85.4847 230.29 85.5303 230.568 85.5303 230.873C85.5303 231.62 85.2773 232.215 84.7715 232.657C84.2656 233.095 83.5706 233.313 82.6865 233.313C82.4769 233.313 82.2627 233.295 82.0439 233.259C81.8206 233.382 81.6497 233.519 81.5312 233.669C81.4173 233.819 81.3604 233.993 81.3604 234.188C81.3604 234.334 81.4036 234.451 81.4902 234.537C81.5814 234.624 81.7113 234.688 81.8799 234.729C82.0485 234.765 82.2513 234.783 82.4883 234.783H83.8076C84.6234 234.783 85.2477 234.954 85.6807 235.296C86.1182 235.638 86.3369 236.137 86.3369 236.793C86.3369 237.622 85.9997 238.258 85.3252 238.7C84.6507 239.142 83.6755 239.363 82.3994 239.363ZM82.4336 238.475C83.0534 238.475 83.5661 238.411 83.9717 238.283C84.3818 238.16 84.6872 237.98 84.8877 237.743C85.0928 237.511 85.1953 237.233 85.1953 236.909C85.1953 236.608 85.127 236.381 84.9902 236.226C84.8535 236.075 84.653 235.975 84.3887 235.925C84.1243 235.87 83.8008 235.843 83.418 235.843H82.1191C81.7819 235.843 81.488 235.895 81.2373 236C80.9867 236.105 80.793 236.26 80.6562 236.465C80.5241 236.67 80.458 236.925 80.458 237.23C80.458 237.636 80.6289 237.944 80.9707 238.153C81.3125 238.368 81.8001 238.475 82.4336 238.475ZM82.7275 232.486C83.2699 232.486 83.6777 232.35 83.9512 232.076C84.2246 231.803 84.3613 231.404 84.3613 230.88C84.3613 230.319 84.2223 229.9 83.9443 229.622C83.6663 229.34 83.2562 229.198 82.7139 229.198C82.1943 229.198 81.7933 229.344 81.5107 229.636C81.2327 229.923 81.0938 230.344 81.0938 230.9C81.0938 231.411 81.235 231.803 81.5176 232.076C81.8001 232.35 82.2035 232.486 82.7275 232.486ZM94.4307 228.371C95.0687 228.371 95.6156 228.512 96.0713 228.795C96.527 229.077 96.8757 229.474 97.1172 229.984C97.3587 230.49 97.4795 231.083 97.4795 231.762V232.466H92.3047C92.3184 233.345 92.5371 234.015 92.9609 234.476C93.3848 234.936 93.9818 235.166 94.752 235.166C95.2259 235.166 95.6452 235.123 96.0098 235.036C96.3743 234.95 96.7526 234.822 97.1445 234.653V235.651C96.7663 235.82 96.3903 235.943 96.0166 236.021C95.6475 236.098 95.21 236.137 94.7041 236.137C93.984 236.137 93.3551 235.991 92.8174 235.699C92.2842 235.403 91.8695 234.97 91.5732 234.4C91.277 233.831 91.1289 233.133 91.1289 232.309C91.1289 231.502 91.2633 230.805 91.5322 230.217C91.8057 229.624 92.1885 229.169 92.6807 228.85C93.1774 228.531 93.7607 228.371 94.4307 228.371ZM94.417 229.301C93.8109 229.301 93.3278 229.499 92.9678 229.896C92.6077 230.292 92.3936 230.846 92.3252 231.557H96.29C96.2855 231.11 96.2148 230.718 96.0781 230.381C95.946 230.039 95.7432 229.775 95.4697 229.588C95.1963 229.396 94.8454 229.301 94.417 229.301ZM100.549 236H99.4072V225.363H100.549V236ZM104.083 228.508V236H102.948V228.508H104.083ZM103.529 225.705C103.716 225.705 103.876 225.767 104.008 225.89C104.145 226.008 104.213 226.195 104.213 226.45C104.213 226.701 104.145 226.888 104.008 227.011C103.876 227.134 103.716 227.195 103.529 227.195C103.333 227.195 103.169 227.134 103.037 227.011C102.91 226.888 102.846 226.701 102.846 226.45C102.846 226.195 102.91 226.008 103.037 225.89C103.169 225.767 103.333 225.705 103.529 225.705ZM108.909 235.207C109.096 235.207 109.287 235.191 109.483 235.159C109.679 235.127 109.839 235.089 109.962 235.043V235.925C109.83 235.984 109.645 236.034 109.408 236.075C109.176 236.116 108.948 236.137 108.725 236.137C108.328 236.137 107.968 236.068 107.645 235.932C107.321 235.79 107.061 235.553 106.865 235.221C106.674 234.888 106.578 234.428 106.578 233.84V229.396H105.512V228.843L106.585 228.398L107.036 226.771H107.72V228.508H109.914V229.396H107.72V233.806C107.72 234.275 107.827 234.626 108.041 234.858C108.26 235.091 108.549 235.207 108.909 235.207ZM111.309 235.289C111.309 234.97 111.386 234.744 111.541 234.612C111.696 234.476 111.885 234.407 112.108 234.407C112.341 234.407 112.537 234.476 112.696 234.612C112.856 234.744 112.936 234.97 112.936 235.289C112.936 235.604 112.856 235.834 112.696 235.979C112.537 236.121 112.341 236.191 112.108 236.191C111.885 236.191 111.696 236.121 111.541 235.979C111.386 235.834 111.309 235.604 111.309 235.289ZM124.604 233.341C124.604 233.933 124.456 234.439 124.16 234.858C123.868 235.273 123.458 235.59 122.93 235.809C122.401 236.027 121.779 236.137 121.063 236.137C120.685 236.137 120.327 236.118 119.99 236.082C119.653 236.046 119.343 235.993 119.061 235.925C118.778 235.856 118.53 235.772 118.315 235.672V234.558C118.657 234.699 119.074 234.831 119.566 234.954C120.059 235.073 120.574 235.132 121.111 235.132C121.613 235.132 122.036 235.066 122.383 234.934C122.729 234.797 122.991 234.603 123.169 234.353C123.351 234.097 123.442 233.792 123.442 233.437C123.442 233.095 123.367 232.81 123.217 232.582C123.066 232.35 122.816 232.14 122.465 231.953C122.118 231.762 121.645 231.559 121.043 231.345C120.619 231.194 120.245 231.03 119.922 230.853C119.598 230.67 119.327 230.465 119.108 230.237C118.89 230.009 118.723 229.745 118.609 229.444C118.5 229.144 118.445 228.799 118.445 228.412C118.445 227.879 118.58 227.423 118.849 227.045C119.122 226.662 119.498 226.37 119.977 226.17C120.46 225.965 121.013 225.862 121.638 225.862C122.171 225.862 122.663 225.912 123.114 226.013C123.57 226.113 123.987 226.247 124.365 226.416L124.003 227.414C123.643 227.264 123.26 227.138 122.854 227.038C122.453 226.938 122.039 226.888 121.61 226.888C121.182 226.888 120.82 226.951 120.523 227.079C120.232 227.202 120.008 227.378 119.854 227.605C119.699 227.833 119.621 228.104 119.621 228.419C119.621 228.77 119.694 229.062 119.84 229.294C119.99 229.526 120.227 229.734 120.551 229.916C120.879 230.094 121.312 230.281 121.85 230.477C122.438 230.691 122.937 230.919 123.347 231.16C123.757 231.397 124.069 231.689 124.283 232.035C124.497 232.377 124.604 232.812 124.604 233.341ZM132.664 228.508V236H131.734L131.57 234.947H131.509C131.354 235.207 131.153 235.426 130.907 235.604C130.661 235.781 130.383 235.913 130.073 236C129.768 236.091 129.442 236.137 129.096 236.137C128.503 236.137 128.007 236.041 127.605 235.85C127.204 235.658 126.901 235.362 126.696 234.961C126.496 234.56 126.396 234.045 126.396 233.416V228.508H127.544V233.334C127.544 233.958 127.685 234.425 127.968 234.735C128.25 235.041 128.681 235.193 129.26 235.193C129.816 235.193 130.258 235.089 130.586 234.879C130.919 234.669 131.158 234.362 131.304 233.956C131.45 233.546 131.522 233.045 131.522 232.452V228.508H132.664ZM139.91 233.949C139.91 234.428 139.789 234.831 139.548 235.159C139.311 235.483 138.969 235.727 138.522 235.891C138.08 236.055 137.552 236.137 136.937 236.137C136.412 236.137 135.959 236.096 135.576 236.014C135.193 235.932 134.858 235.815 134.571 235.665V234.619C134.877 234.77 135.241 234.906 135.665 235.029C136.089 235.152 136.522 235.214 136.964 235.214C137.611 235.214 138.08 235.109 138.372 234.899C138.664 234.69 138.81 234.405 138.81 234.045C138.81 233.84 138.75 233.66 138.632 233.505C138.518 233.345 138.324 233.193 138.051 233.047C137.777 232.896 137.399 232.732 136.916 232.555C136.438 232.372 136.023 232.192 135.672 232.015C135.326 231.832 135.057 231.611 134.865 231.352C134.678 231.092 134.585 230.755 134.585 230.34C134.585 229.706 134.84 229.221 135.351 228.884C135.866 228.542 136.54 228.371 137.374 228.371C137.825 228.371 138.247 228.417 138.639 228.508C139.035 228.594 139.404 228.713 139.746 228.863L139.363 229.772C139.053 229.64 138.723 229.529 138.372 229.438C138.021 229.346 137.663 229.301 137.299 229.301C136.775 229.301 136.371 229.387 136.089 229.561C135.811 229.734 135.672 229.971 135.672 230.271C135.672 230.504 135.736 230.695 135.863 230.846C135.995 230.996 136.205 231.137 136.492 231.27C136.779 231.402 137.158 231.557 137.627 231.734C138.096 231.908 138.502 232.088 138.844 232.274C139.186 232.457 139.448 232.68 139.63 232.944C139.817 233.204 139.91 233.539 139.91 233.949ZM145.256 228.371C146.19 228.371 146.935 228.692 147.491 229.335C148.047 229.978 148.325 230.944 148.325 232.233C148.325 233.086 148.198 233.801 147.942 234.38C147.687 234.959 147.327 235.396 146.862 235.692C146.402 235.989 145.857 236.137 145.229 236.137C144.832 236.137 144.483 236.084 144.183 235.979C143.882 235.875 143.624 235.733 143.41 235.556C143.196 235.378 143.018 235.184 142.877 234.975H142.795C142.809 235.152 142.825 235.367 142.843 235.617C142.866 235.868 142.877 236.087 142.877 236.273V239.35H141.735V228.508H142.672L142.822 229.615H142.877C143.023 229.387 143.201 229.18 143.41 228.993C143.62 228.802 143.875 228.651 144.176 228.542C144.481 228.428 144.841 228.371 145.256 228.371ZM145.058 229.328C144.538 229.328 144.119 229.428 143.8 229.629C143.485 229.829 143.255 230.13 143.109 230.531C142.964 230.928 142.886 231.427 142.877 232.028V232.247C142.877 232.881 142.945 233.416 143.082 233.854C143.223 234.291 143.453 234.624 143.772 234.852C144.096 235.079 144.529 235.193 145.071 235.193C145.536 235.193 145.924 235.068 146.233 234.817C146.543 234.567 146.773 234.218 146.924 233.771C147.079 233.32 147.156 232.803 147.156 232.22C147.156 231.336 146.983 230.634 146.637 230.114C146.295 229.59 145.769 229.328 145.058 229.328ZM153.192 228.371C153.83 228.371 154.377 228.512 154.833 228.795C155.289 229.077 155.637 229.474 155.879 229.984C156.12 230.49 156.241 231.083 156.241 231.762V232.466H151.066C151.08 233.345 151.299 234.015 151.723 234.476C152.146 234.936 152.743 235.166 153.514 235.166C153.988 235.166 154.407 235.123 154.771 235.036C155.136 234.95 155.514 234.822 155.906 234.653V235.651C155.528 235.82 155.152 235.943 154.778 236.021C154.409 236.098 153.972 236.137 153.466 236.137C152.746 236.137 152.117 235.991 151.579 235.699C151.046 235.403 150.631 234.97 150.335 234.4C150.039 233.831 149.891 233.133 149.891 232.309C149.891 231.502 150.025 230.805 150.294 230.217C150.567 229.624 150.95 229.169 151.442 228.85C151.939 228.531 152.522 228.371 153.192 228.371ZM153.179 229.301C152.573 229.301 152.09 229.499 151.729 229.896C151.369 230.292 151.155 230.846 151.087 231.557H155.052C155.047 231.11 154.977 230.718 154.84 230.381C154.708 230.039 154.505 229.775 154.231 229.588C153.958 229.396 153.607 229.301 153.179 229.301ZM161.717 228.371C162.605 228.371 163.278 228.59 163.733 229.027C164.189 229.46 164.417 230.158 164.417 231.119V236H163.296V231.194C163.296 230.57 163.152 230.103 162.865 229.793C162.583 229.483 162.147 229.328 161.56 229.328C160.73 229.328 160.147 229.563 159.81 230.032C159.472 230.502 159.304 231.183 159.304 232.076V236H158.169V228.508H159.085L159.256 229.588H159.317C159.477 229.324 159.68 229.103 159.926 228.925C160.172 228.743 160.448 228.606 160.753 228.515C161.058 228.419 161.38 228.371 161.717 228.371ZM169.421 236.137C168.473 236.137 167.721 235.813 167.165 235.166C166.614 234.519 166.338 233.557 166.338 232.281C166.338 230.992 166.62 230.019 167.186 229.362C167.751 228.701 168.503 228.371 169.441 228.371C169.838 228.371 170.184 228.424 170.48 228.528C170.777 228.633 171.032 228.774 171.246 228.952C171.46 229.125 171.64 229.324 171.786 229.547H171.868C171.85 229.406 171.832 229.212 171.813 228.966C171.795 228.72 171.786 228.519 171.786 228.364V225.363H172.921V236H172.005L171.834 234.934H171.786C171.645 235.157 171.465 235.36 171.246 235.542C171.032 235.724 170.774 235.87 170.474 235.979C170.177 236.084 169.826 236.137 169.421 236.137ZM169.599 235.193C170.401 235.193 170.968 234.965 171.301 234.51C171.633 234.054 171.8 233.377 171.8 232.479V232.274C171.8 231.322 171.64 230.59 171.321 230.08C171.007 229.57 170.433 229.314 169.599 229.314C168.901 229.314 168.38 229.583 168.033 230.121C167.687 230.654 167.514 231.383 167.514 232.309C167.514 233.229 167.685 233.94 168.026 234.441C168.373 234.943 168.897 235.193 169.599 235.193ZM176.462 228.508V236H175.327V228.508H176.462ZM175.908 225.705C176.095 225.705 176.255 225.767 176.387 225.89C176.523 226.008 176.592 226.195 176.592 226.45C176.592 226.701 176.523 226.888 176.387 227.011C176.255 227.134 176.095 227.195 175.908 227.195C175.712 227.195 175.548 227.134 175.416 227.011C175.288 226.888 175.225 226.701 175.225 226.45C175.225 226.195 175.288 226.008 175.416 225.89C175.548 225.767 175.712 225.705 175.908 225.705ZM183.715 233.949C183.715 234.428 183.594 234.831 183.353 235.159C183.116 235.483 182.774 235.727 182.327 235.891C181.885 236.055 181.356 236.137 180.741 236.137C180.217 236.137 179.764 236.096 179.381 236.014C178.998 235.932 178.663 235.815 178.376 235.665V234.619C178.681 234.77 179.046 234.906 179.47 235.029C179.894 235.152 180.326 235.214 180.769 235.214C181.416 235.214 181.885 235.109 182.177 234.899C182.468 234.69 182.614 234.405 182.614 234.045C182.614 233.84 182.555 233.66 182.437 233.505C182.323 233.345 182.129 233.193 181.855 233.047C181.582 232.896 181.204 232.732 180.721 232.555C180.242 232.372 179.827 232.192 179.477 232.015C179.13 231.832 178.861 231.611 178.67 231.352C178.483 231.092 178.39 230.755 178.39 230.34C178.39 229.706 178.645 229.221 179.155 228.884C179.67 228.542 180.345 228.371 181.179 228.371C181.63 228.371 182.051 228.417 182.443 228.508C182.84 228.594 183.209 228.713 183.551 228.863L183.168 229.772C182.858 229.64 182.528 229.529 182.177 229.438C181.826 229.346 181.468 229.301 181.104 229.301C180.579 229.301 180.176 229.387 179.894 229.561C179.616 229.734 179.477 229.971 179.477 230.271C179.477 230.504 179.54 230.695 179.668 230.846C179.8 230.996 180.01 231.137 180.297 231.27C180.584 231.402 180.962 231.557 181.432 231.734C181.901 231.908 182.307 232.088 182.648 232.274C182.99 232.457 183.252 232.68 183.435 232.944C183.621 233.204 183.715 233.539 183.715 233.949ZM190.387 233.949C190.387 234.428 190.266 234.831 190.024 235.159C189.787 235.483 189.446 235.727 188.999 235.891C188.557 236.055 188.028 236.137 187.413 236.137C186.889 236.137 186.436 236.096 186.053 236.014C185.67 235.932 185.335 235.815 185.048 235.665V234.619C185.353 234.77 185.718 234.906 186.142 235.029C186.565 235.152 186.998 235.214 187.44 235.214C188.088 235.214 188.557 235.109 188.849 234.899C189.14 234.69 189.286 234.405 189.286 234.045C189.286 233.84 189.227 233.66 189.108 233.505C188.994 233.345 188.801 233.193 188.527 233.047C188.254 232.896 187.876 232.732 187.393 232.555C186.914 232.372 186.499 232.192 186.148 232.015C185.802 231.832 185.533 231.611 185.342 231.352C185.155 231.092 185.062 230.755 185.062 230.34C185.062 229.706 185.317 229.221 185.827 228.884C186.342 228.542 187.017 228.371 187.851 228.371C188.302 228.371 188.723 228.417 189.115 228.508C189.512 228.594 189.881 228.713 190.223 228.863L189.84 229.772C189.53 229.64 189.2 229.529 188.849 229.438C188.498 229.346 188.14 229.301 187.775 229.301C187.251 229.301 186.848 229.387 186.565 229.561C186.287 229.734 186.148 229.971 186.148 230.271C186.148 230.504 186.212 230.695 186.34 230.846C186.472 230.996 186.682 231.137 186.969 231.27C187.256 231.402 187.634 231.557 188.104 231.734C188.573 231.908 188.979 232.088 189.32 232.274C189.662 232.457 189.924 232.68 190.106 232.944C190.293 233.204 190.387 233.539 190.387 233.949ZM195.097 228.371C195.735 228.371 196.282 228.512 196.737 228.795C197.193 229.077 197.542 229.474 197.783 229.984C198.025 230.49 198.146 231.083 198.146 231.762V232.466H192.971C192.984 233.345 193.203 234.015 193.627 234.476C194.051 234.936 194.648 235.166 195.418 235.166C195.892 235.166 196.311 235.123 196.676 235.036C197.04 234.95 197.419 234.822 197.811 234.653V235.651C197.432 235.82 197.056 235.943 196.683 236.021C196.313 236.098 195.876 236.137 195.37 236.137C194.65 236.137 194.021 235.991 193.483 235.699C192.95 235.403 192.535 234.97 192.239 234.4C191.943 233.831 191.795 233.133 191.795 232.309C191.795 231.502 191.929 230.805 192.198 230.217C192.472 229.624 192.854 229.169 193.347 228.85C193.843 228.531 194.427 228.371 195.097 228.371ZM195.083 229.301C194.477 229.301 193.994 229.499 193.634 229.896C193.274 230.292 193.06 230.846 192.991 231.557H196.956C196.951 231.11 196.881 230.718 196.744 230.381C196.612 230.039 196.409 229.775 196.136 229.588C195.862 229.396 195.511 229.301 195.083 229.301ZM205.357 236L202.514 228.508H203.73L205.378 233.04C205.492 233.35 205.608 233.692 205.727 234.065C205.845 234.439 205.927 234.74 205.973 234.968H206.021C206.075 234.74 206.166 234.439 206.294 234.065C206.422 233.687 206.538 233.345 206.643 233.04L208.29 228.508H209.507L206.656 236H205.357ZM213.513 228.385C214.406 228.385 215.069 228.585 215.502 228.986C215.935 229.387 216.151 230.028 216.151 230.907V236H215.324L215.105 234.893H215.051C214.841 235.166 214.622 235.396 214.395 235.583C214.167 235.765 213.902 235.904 213.602 236C213.305 236.091 212.941 236.137 212.508 236.137C212.052 236.137 211.646 236.057 211.291 235.897C210.94 235.738 210.662 235.496 210.457 235.173C210.257 234.849 210.156 234.439 210.156 233.942C210.156 233.195 210.452 232.621 211.045 232.22C211.637 231.819 212.54 231.6 213.752 231.563L215.044 231.509V231.051C215.044 230.404 214.905 229.95 214.627 229.69C214.349 229.431 213.957 229.301 213.451 229.301C213.059 229.301 212.686 229.358 212.33 229.472C211.975 229.586 211.637 229.72 211.318 229.875L210.97 229.014C211.307 228.84 211.694 228.692 212.132 228.569C212.569 228.446 213.03 228.385 213.513 228.385ZM215.03 232.309L213.889 232.356C212.954 232.393 212.296 232.546 211.913 232.814C211.53 233.083 211.339 233.464 211.339 233.956C211.339 234.384 211.469 234.701 211.729 234.906C211.988 235.111 212.332 235.214 212.761 235.214C213.426 235.214 213.971 235.029 214.395 234.66C214.818 234.291 215.03 233.737 215.03 232.999V232.309ZM221.894 228.371C222.044 228.371 222.201 228.38 222.365 228.398C222.529 228.412 222.675 228.433 222.803 228.46L222.659 229.513C222.536 229.481 222.399 229.456 222.249 229.438C222.099 229.419 221.957 229.41 221.825 229.41C221.524 229.41 221.24 229.472 220.971 229.595C220.706 229.713 220.474 229.886 220.273 230.114C220.073 230.338 219.916 230.609 219.802 230.928C219.688 231.242 219.631 231.593 219.631 231.98V236H218.489V228.508H219.433L219.556 229.889H219.604C219.758 229.611 219.945 229.358 220.164 229.13C220.383 228.897 220.636 228.713 220.923 228.576C221.215 228.439 221.538 228.371 221.894 228.371ZM225.353 228.508V236H224.218V228.508H225.353ZM224.799 225.705C224.986 225.705 225.145 225.767 225.277 225.89C225.414 226.008 225.482 226.195 225.482 226.45C225.482 226.701 225.414 226.888 225.277 227.011C225.145 227.134 224.986 227.195 224.799 227.195C224.603 227.195 224.439 227.134 224.307 227.011C224.179 226.888 224.115 226.701 224.115 226.45C224.115 226.195 224.179 226.008 224.307 225.89C224.439 225.767 224.603 225.705 224.799 225.705ZM233.945 228.508V236H233.016L232.852 234.947H232.79C232.635 235.207 232.435 235.426 232.188 235.604C231.942 235.781 231.664 235.913 231.354 236C231.049 236.091 230.723 236.137 230.377 236.137C229.785 236.137 229.288 236.041 228.887 235.85C228.486 235.658 228.183 235.362 227.978 234.961C227.777 234.56 227.677 234.045 227.677 233.416V228.508H228.825V233.334C228.825 233.958 228.966 234.425 229.249 234.735C229.532 235.041 229.962 235.193 230.541 235.193C231.097 235.193 231.539 235.089 231.867 234.879C232.2 234.669 232.439 234.362 232.585 233.956C232.731 233.546 232.804 233.045 232.804 232.452V228.508H233.945ZM241.191 233.949C241.191 234.428 241.071 234.831 240.829 235.159C240.592 235.483 240.25 235.727 239.804 235.891C239.362 236.055 238.833 236.137 238.218 236.137C237.694 236.137 237.24 236.096 236.857 236.014C236.475 235.932 236.14 235.815 235.853 235.665V234.619C236.158 234.77 236.522 234.906 236.946 235.029C237.37 235.152 237.803 235.214 238.245 235.214C238.892 235.214 239.362 235.109 239.653 234.899C239.945 234.69 240.091 234.405 240.091 234.045C240.091 233.84 240.032 233.66 239.913 233.505C239.799 233.345 239.605 233.193 239.332 233.047C239.059 232.896 238.68 232.732 238.197 232.555C237.719 232.372 237.304 232.192 236.953 232.015C236.607 231.832 236.338 231.611 236.146 231.352C235.96 231.092 235.866 230.755 235.866 230.34C235.866 229.706 236.121 229.221 236.632 228.884C237.147 228.542 237.821 228.371 238.655 228.371C239.106 228.371 239.528 228.417 239.92 228.508C240.316 228.594 240.686 228.713 241.027 228.863L240.645 229.772C240.335 229.64 240.004 229.529 239.653 229.438C239.302 229.346 238.945 229.301 238.58 229.301C238.056 229.301 237.653 229.387 237.37 229.561C237.092 229.734 236.953 229.971 236.953 230.271C236.953 230.504 237.017 230.695 237.145 230.846C237.277 230.996 237.486 231.137 237.773 231.27C238.061 231.402 238.439 231.557 238.908 231.734C239.378 231.908 239.783 232.088 240.125 232.274C240.467 232.457 240.729 232.68 240.911 232.944C241.098 233.204 241.191 233.539 241.191 233.949ZM249.538 228.371C250.176 228.371 250.723 228.512 251.179 228.795C251.634 229.077 251.983 229.474 252.225 229.984C252.466 230.49 252.587 231.083 252.587 231.762V232.466H247.412C247.426 233.345 247.645 234.015 248.068 234.476C248.492 234.936 249.089 235.166 249.859 235.166C250.333 235.166 250.753 235.123 251.117 235.036C251.482 234.95 251.86 234.822 252.252 234.653V235.651C251.874 235.82 251.498 235.943 251.124 236.021C250.755 236.098 250.317 236.137 249.812 236.137C249.091 236.137 248.463 235.991 247.925 235.699C247.392 235.403 246.977 234.97 246.681 234.4C246.384 233.831 246.236 233.133 246.236 232.309C246.236 231.502 246.371 230.805 246.64 230.217C246.913 229.624 247.296 229.169 247.788 228.85C248.285 228.531 248.868 228.371 249.538 228.371ZM249.524 229.301C248.918 229.301 248.435 229.499 248.075 229.896C247.715 230.292 247.501 230.846 247.433 231.557H251.397C251.393 231.11 251.322 230.718 251.186 230.381C251.053 230.039 250.851 229.775 250.577 229.588C250.304 229.396 249.953 229.301 249.524 229.301ZM258.062 228.371C258.951 228.371 259.623 228.59 260.079 229.027C260.535 229.46 260.763 230.158 260.763 231.119V236H259.642V231.194C259.642 230.57 259.498 230.103 259.211 229.793C258.928 229.483 258.493 229.328 257.905 229.328C257.076 229.328 256.493 229.563 256.155 230.032C255.818 230.502 255.649 231.183 255.649 232.076V236H254.515V228.508H255.431L255.602 229.588H255.663C255.823 229.324 256.025 229.103 256.271 228.925C256.518 228.743 256.793 228.606 257.099 228.515C257.404 228.419 257.725 228.371 258.062 228.371ZM264.235 228.508V236H263.101V228.508H264.235ZM263.682 225.705C263.868 225.705 264.028 225.767 264.16 225.89C264.297 226.008 264.365 226.195 264.365 226.45C264.365 226.701 264.297 226.888 264.16 227.011C264.028 227.134 263.868 227.195 263.682 227.195C263.486 227.195 263.322 227.134 263.189 227.011C263.062 226.888 262.998 226.701 262.998 226.45C262.998 226.195 263.062 226.008 263.189 225.89C263.322 225.767 263.486 225.705 263.682 225.705ZM274.776 228.371C275.601 228.371 276.223 228.588 276.643 229.021C277.062 229.449 277.271 230.139 277.271 231.092V236H276.15V231.146C276.15 230.54 276.018 230.087 275.754 229.786C275.494 229.481 275.107 229.328 274.592 229.328C273.867 229.328 273.341 229.538 273.013 229.957C272.685 230.376 272.521 230.994 272.521 231.81V236H271.393V231.146C271.393 230.741 271.333 230.404 271.215 230.135C271.101 229.866 270.928 229.665 270.695 229.533C270.467 229.396 270.178 229.328 269.827 229.328C269.33 229.328 268.932 229.431 268.631 229.636C268.33 229.841 268.111 230.146 267.975 230.552C267.842 230.953 267.776 231.447 267.776 232.035V236H266.642V228.508H267.558L267.729 229.567H267.79C267.94 229.308 268.13 229.089 268.357 228.911C268.585 228.733 268.84 228.599 269.123 228.508C269.406 228.417 269.706 228.371 270.025 228.371C270.595 228.371 271.071 228.478 271.454 228.692C271.841 228.902 272.122 229.223 272.295 229.656H272.356C272.603 229.223 272.94 228.902 273.368 228.692C273.797 228.478 274.266 228.371 274.776 228.371ZM59.7861 253.508V261H58.6514V253.508H59.7861ZM59.2324 250.705C59.4193 250.705 59.5788 250.767 59.7109 250.89C59.8477 251.008 59.916 251.195 59.916 251.45C59.916 251.701 59.8477 251.888 59.7109 252.011C59.5788 252.134 59.4193 252.195 59.2324 252.195C59.0365 252.195 58.8724 252.134 58.7402 252.011C58.6126 251.888 58.5488 251.701 58.5488 251.45C58.5488 251.195 58.6126 251.008 58.7402 250.89C58.8724 250.767 59.0365 250.705 59.2324 250.705ZM65.7402 253.371C66.6289 253.371 67.3011 253.59 67.7568 254.027C68.2126 254.46 68.4404 255.158 68.4404 256.119V261H67.3193V256.194C67.3193 255.57 67.1758 255.103 66.8887 254.793C66.6061 254.483 66.1709 254.328 65.583 254.328C64.7536 254.328 64.1702 254.563 63.833 255.032C63.4958 255.502 63.3271 256.183 63.3271 257.076V261H62.1924V253.508H63.1084L63.2793 254.588H63.3408C63.5003 254.324 63.7031 254.103 63.9492 253.925C64.1953 253.743 64.471 253.606 64.7764 253.515C65.0817 253.419 65.403 253.371 65.7402 253.371ZM77.2998 253.371C77.9378 253.371 78.4847 253.512 78.9404 253.795C79.3962 254.077 79.7448 254.474 79.9863 254.984C80.2279 255.49 80.3486 256.083 80.3486 256.762V257.466H75.1738C75.1875 258.345 75.4062 259.015 75.8301 259.476C76.2539 259.936 76.8509 260.166 77.6211 260.166C78.0951 260.166 78.5143 260.123 78.8789 260.036C79.2435 259.95 79.6217 259.822 80.0137 259.653V260.651C79.6354 260.82 79.2594 260.943 78.8857 261.021C78.5166 261.098 78.0791 261.137 77.5732 261.137C76.8532 261.137 76.2243 260.991 75.6865 260.699C75.1533 260.403 74.7386 259.97 74.4424 259.4C74.1462 258.831 73.998 258.133 73.998 257.309C73.998 256.502 74.1325 255.805 74.4014 255.217C74.6748 254.624 75.0576 254.169 75.5498 253.85C76.0465 253.531 76.6299 253.371 77.2998 253.371ZM77.2861 254.301C76.68 254.301 76.1969 254.499 75.8369 254.896C75.4769 255.292 75.2627 255.846 75.1943 256.557H79.1592C79.1546 256.11 79.084 255.718 78.9473 255.381C78.8151 255.039 78.6123 254.775 78.3389 254.588C78.0654 254.396 77.7145 254.301 77.2861 254.301ZM85.6807 253.371C85.8311 253.371 85.9883 253.38 86.1523 253.398C86.3164 253.412 86.4622 253.433 86.5898 253.46L86.4463 254.513C86.3232 254.481 86.1865 254.456 86.0361 254.438C85.8857 254.419 85.7445 254.41 85.6123 254.41C85.3115 254.41 85.0267 254.472 84.7578 254.595C84.4935 254.713 84.2611 254.886 84.0605 255.114C83.86 255.338 83.7028 255.609 83.5889 255.928C83.4749 256.242 83.418 256.593 83.418 256.98V261H82.2764V253.508H83.2197L83.3428 254.889H83.3906C83.5456 254.611 83.7324 254.358 83.9512 254.13C84.1699 253.897 84.4229 253.713 84.71 253.576C85.0016 253.439 85.3252 253.371 85.6807 253.371ZM94.4648 257.24C94.4648 257.855 94.3851 258.405 94.2256 258.888C94.0661 259.371 93.8359 259.779 93.5352 260.111C93.2344 260.444 92.8698 260.699 92.4414 260.877C92.0176 261.05 91.5368 261.137 90.999 261.137C90.4977 261.137 90.0374 261.05 89.6182 260.877C89.2035 260.699 88.8434 260.444 88.5381 260.111C88.2373 259.779 88.0026 259.371 87.834 258.888C87.6699 258.405 87.5879 257.855 87.5879 257.24C87.5879 256.42 87.7269 255.723 88.0049 255.148C88.2829 254.57 88.6794 254.13 89.1943 253.829C89.7139 253.524 90.3314 253.371 91.0469 253.371C91.7305 253.371 92.3275 253.524 92.8379 253.829C93.3529 254.134 93.7516 254.576 94.0342 255.155C94.3213 255.729 94.4648 256.424 94.4648 257.24ZM88.7637 257.24C88.7637 257.842 88.8434 258.364 89.0029 258.806C89.1624 259.248 89.4085 259.59 89.7412 259.831C90.0739 260.073 90.5023 260.193 91.0264 260.193C91.5459 260.193 91.972 260.073 92.3047 259.831C92.6419 259.59 92.8903 259.248 93.0498 258.806C93.2093 258.364 93.2891 257.842 93.2891 257.24C93.2891 256.643 93.2093 256.128 93.0498 255.695C92.8903 255.258 92.6442 254.921 92.3115 254.684C91.9788 254.447 91.5482 254.328 91.0195 254.328C90.2402 254.328 89.6683 254.586 89.3037 255.101C88.9437 255.616 88.7637 256.329 88.7637 257.24ZM101.273 258.949C101.273 259.428 101.153 259.831 100.911 260.159C100.674 260.483 100.332 260.727 99.8857 260.891C99.4437 261.055 98.915 261.137 98.2998 261.137C97.7757 261.137 97.3223 261.096 96.9395 261.014C96.5566 260.932 96.2217 260.815 95.9346 260.665V259.619C96.2399 259.77 96.6045 259.906 97.0283 260.029C97.4521 260.152 97.8851 260.214 98.3271 260.214C98.9743 260.214 99.4437 260.109 99.7354 259.899C100.027 259.69 100.173 259.405 100.173 259.045C100.173 258.84 100.114 258.66 99.9951 258.505C99.8812 258.345 99.6875 258.193 99.4141 258.047C99.1406 257.896 98.7624 257.732 98.2793 257.555C97.8008 257.372 97.3861 257.192 97.0352 257.015C96.6888 256.832 96.4199 256.611 96.2285 256.352C96.0417 256.092 95.9482 255.755 95.9482 255.34C95.9482 254.706 96.2035 254.221 96.7139 253.884C97.2288 253.542 97.9033 253.371 98.7373 253.371C99.1885 253.371 99.61 253.417 100.002 253.508C100.398 253.594 100.768 253.713 101.109 253.863L100.727 254.772C100.417 254.64 100.086 254.529 99.7354 254.438C99.3844 254.346 99.0267 254.301 98.6621 254.301C98.138 254.301 97.7347 254.387 97.4521 254.561C97.1742 254.734 97.0352 254.971 97.0352 255.271C97.0352 255.504 97.099 255.695 97.2266 255.846C97.3587 255.996 97.5684 256.137 97.8555 256.27C98.1426 256.402 98.5208 256.557 98.9902 256.734C99.4596 256.908 99.8652 257.088 100.207 257.274C100.549 257.457 100.811 257.68 100.993 257.944C101.18 258.204 101.273 258.539 101.273 258.949ZM109.62 253.371C110.258 253.371 110.805 253.512 111.261 253.795C111.716 254.077 112.065 254.474 112.307 254.984C112.548 255.49 112.669 256.083 112.669 256.762V257.466H107.494C107.508 258.345 107.727 259.015 108.15 259.476C108.574 259.936 109.171 260.166 109.941 260.166C110.415 260.166 110.835 260.123 111.199 260.036C111.564 259.95 111.942 259.822 112.334 259.653V260.651C111.956 260.82 111.58 260.943 111.206 261.021C110.837 261.098 110.399 261.137 109.894 261.137C109.174 261.137 108.545 260.991 108.007 260.699C107.474 260.403 107.059 259.97 106.763 259.4C106.466 258.831 106.318 258.133 106.318 257.309C106.318 256.502 106.453 255.805 106.722 255.217C106.995 254.624 107.378 254.169 107.87 253.85C108.367 253.531 108.95 253.371 109.62 253.371ZM109.606 254.301C109 254.301 108.517 254.499 108.157 254.896C107.797 255.292 107.583 255.846 107.515 256.557H111.479C111.475 256.11 111.404 255.718 111.268 255.381C111.135 255.039 110.933 254.775 110.659 254.588C110.386 254.396 110.035 254.301 109.606 254.301ZM115.738 261H114.597V250.363H115.738V261ZM121.022 253.371C121.66 253.371 122.207 253.512 122.663 253.795C123.119 254.077 123.467 254.474 123.709 254.984C123.951 255.49 124.071 256.083 124.071 256.762V257.466H118.896C118.91 258.345 119.129 259.015 119.553 259.476C119.977 259.936 120.574 260.166 121.344 260.166C121.818 260.166 122.237 260.123 122.602 260.036C122.966 259.95 123.344 259.822 123.736 259.653V260.651C123.358 260.82 122.982 260.943 122.608 261.021C122.239 261.098 121.802 261.137 121.296 261.137C120.576 261.137 119.947 260.991 119.409 260.699C118.876 260.403 118.461 259.97 118.165 259.4C117.869 258.831 117.721 258.133 117.721 257.309C117.721 256.502 117.855 255.805 118.124 255.217C118.397 254.624 118.78 254.169 119.272 253.85C119.769 253.531 120.353 253.371 121.022 253.371ZM121.009 254.301C120.403 254.301 119.92 254.499 119.56 254.896C119.2 255.292 118.985 255.846 118.917 256.557H122.882C122.877 256.11 122.807 255.718 122.67 255.381C122.538 255.039 122.335 254.775 122.062 254.588C121.788 254.396 121.437 254.301 121.009 254.301ZM134.134 253.371C134.959 253.371 135.581 253.588 136 254.021C136.419 254.449 136.629 255.139 136.629 256.092V261H135.508V256.146C135.508 255.54 135.376 255.087 135.111 254.786C134.852 254.481 134.464 254.328 133.949 254.328C133.225 254.328 132.698 254.538 132.37 254.957C132.042 255.376 131.878 255.994 131.878 256.81V261H130.75V256.146C130.75 255.741 130.691 255.404 130.572 255.135C130.458 254.866 130.285 254.665 130.053 254.533C129.825 254.396 129.535 254.328 129.185 254.328C128.688 254.328 128.289 254.431 127.988 254.636C127.688 254.841 127.469 255.146 127.332 255.552C127.2 255.953 127.134 256.447 127.134 257.035V261H125.999V253.508H126.915L127.086 254.567H127.147C127.298 254.308 127.487 254.089 127.715 253.911C127.943 253.733 128.198 253.599 128.48 253.508C128.763 253.417 129.064 253.371 129.383 253.371C129.952 253.371 130.429 253.478 130.812 253.692C131.199 253.902 131.479 254.223 131.652 254.656H131.714C131.96 254.223 132.297 253.902 132.726 253.692C133.154 253.478 133.623 253.371 134.134 253.371ZM141.845 253.371C142.483 253.371 143.03 253.512 143.485 253.795C143.941 254.077 144.29 254.474 144.531 254.984C144.773 255.49 144.894 256.083 144.894 256.762V257.466H139.719C139.732 258.345 139.951 259.015 140.375 259.476C140.799 259.936 141.396 260.166 142.166 260.166C142.64 260.166 143.059 260.123 143.424 260.036C143.788 259.95 144.167 259.822 144.559 259.653V260.651C144.18 260.82 143.804 260.943 143.431 261.021C143.062 261.098 142.624 261.137 142.118 261.137C141.398 261.137 140.769 260.991 140.231 260.699C139.698 260.403 139.284 259.97 138.987 259.4C138.691 258.831 138.543 258.133 138.543 257.309C138.543 256.502 138.677 255.805 138.946 255.217C139.22 254.624 139.603 254.169 140.095 253.85C140.591 253.531 141.175 253.371 141.845 253.371ZM141.831 254.301C141.225 254.301 140.742 254.499 140.382 254.896C140.022 255.292 139.808 255.846 139.739 256.557H143.704C143.7 256.11 143.629 255.718 143.492 255.381C143.36 255.039 143.157 254.775 142.884 254.588C142.61 254.396 142.259 254.301 141.831 254.301ZM150.369 253.371C151.258 253.371 151.93 253.59 152.386 254.027C152.841 254.46 153.069 255.158 153.069 256.119V261H151.948V256.194C151.948 255.57 151.805 255.103 151.518 254.793C151.235 254.483 150.8 254.328 150.212 254.328C149.382 254.328 148.799 254.563 148.462 255.032C148.125 255.502 147.956 256.183 147.956 257.076V261H146.821V253.508H147.737L147.908 254.588H147.97C148.129 254.324 148.332 254.103 148.578 253.925C148.824 253.743 149.1 253.606 149.405 253.515C149.711 253.419 150.032 253.371 150.369 253.371ZM157.827 260.207C158.014 260.207 158.205 260.191 158.401 260.159C158.597 260.127 158.757 260.089 158.88 260.043V260.925C158.748 260.984 158.563 261.034 158.326 261.075C158.094 261.116 157.866 261.137 157.643 261.137C157.246 261.137 156.886 261.068 156.562 260.932C156.239 260.79 155.979 260.553 155.783 260.221C155.592 259.888 155.496 259.428 155.496 258.84V254.396H154.43V253.843L155.503 253.398L155.954 251.771H156.638V253.508H158.832V254.396H156.638V258.806C156.638 259.275 156.745 259.626 156.959 259.858C157.178 260.091 157.467 260.207 157.827 260.207ZM166.584 253.508V261H165.654L165.49 259.947H165.429C165.274 260.207 165.073 260.426 164.827 260.604C164.581 260.781 164.303 260.913 163.993 261C163.688 261.091 163.362 261.137 163.016 261.137C162.423 261.137 161.926 261.041 161.525 260.85C161.124 260.658 160.821 260.362 160.616 259.961C160.416 259.56 160.315 259.045 160.315 258.416V253.508H161.464V258.334C161.464 258.958 161.605 259.425 161.888 259.735C162.17 260.041 162.601 260.193 163.18 260.193C163.736 260.193 164.178 260.089 164.506 259.879C164.839 259.669 165.078 259.362 165.224 258.956C165.369 258.546 165.442 258.045 165.442 257.452V253.508H166.584ZM177.118 253.371C177.943 253.371 178.565 253.588 178.984 254.021C179.404 254.449 179.613 255.139 179.613 256.092V261H178.492V256.146C178.492 255.54 178.36 255.087 178.096 254.786C177.836 254.481 177.449 254.328 176.934 254.328C176.209 254.328 175.683 254.538 175.354 254.957C175.026 255.376 174.862 255.994 174.862 256.81V261H173.734V256.146C173.734 255.741 173.675 255.404 173.557 255.135C173.443 254.866 173.27 254.665 173.037 254.533C172.809 254.396 172.52 254.328 172.169 254.328C171.672 254.328 171.273 254.431 170.973 254.636C170.672 254.841 170.453 255.146 170.316 255.552C170.184 255.953 170.118 256.447 170.118 257.035V261H168.983V253.508H169.899L170.07 254.567H170.132C170.282 254.308 170.471 254.089 170.699 253.911C170.927 253.733 171.182 253.599 171.465 253.508C171.747 253.417 172.048 253.371 172.367 253.371C172.937 253.371 173.413 253.478 173.796 253.692C174.183 253.902 174.464 254.223 174.637 254.656H174.698C174.944 254.223 175.282 253.902 175.71 253.692C176.138 253.478 176.608 253.371 177.118 253.371ZM188.001 260.207C188.188 260.207 188.379 260.191 188.575 260.159C188.771 260.127 188.931 260.089 189.054 260.043V260.925C188.922 260.984 188.737 261.034 188.5 261.075C188.268 261.116 188.04 261.137 187.816 261.137C187.42 261.137 187.06 261.068 186.736 260.932C186.413 260.79 186.153 260.553 185.957 260.221C185.766 259.888 185.67 259.428 185.67 258.84V254.396H184.604V253.843L185.677 253.398L186.128 251.771H186.812V253.508H189.006V254.396H186.812V258.806C186.812 259.275 186.919 259.626 187.133 259.858C187.352 260.091 187.641 260.207 188.001 260.207ZM193.976 253.371C194.126 253.371 194.283 253.38 194.447 253.398C194.611 253.412 194.757 253.433 194.885 253.46L194.741 254.513C194.618 254.481 194.481 254.456 194.331 254.438C194.181 254.419 194.039 254.41 193.907 254.41C193.606 254.41 193.322 254.472 193.053 254.595C192.788 254.713 192.556 254.886 192.355 255.114C192.155 255.338 191.998 255.609 191.884 255.928C191.77 256.242 191.713 256.593 191.713 256.98V261H190.571V253.508H191.515L191.638 254.889H191.686C191.84 254.611 192.027 254.358 192.246 254.13C192.465 253.897 192.718 253.713 193.005 253.576C193.297 253.439 193.62 253.371 193.976 253.371ZM197.435 253.508V261H196.3V253.508H197.435ZM196.881 250.705C197.068 250.705 197.227 250.767 197.359 250.89C197.496 251.008 197.564 251.195 197.564 251.45C197.564 251.701 197.496 251.888 197.359 252.011C197.227 252.134 197.068 252.195 196.881 252.195C196.685 252.195 196.521 252.134 196.389 252.011C196.261 251.888 196.197 251.701 196.197 251.45C196.197 251.195 196.261 251.008 196.389 250.89C196.521 250.767 196.685 250.705 196.881 250.705ZM204.688 258.949C204.688 259.428 204.567 259.831 204.325 260.159C204.088 260.483 203.746 260.727 203.3 260.891C202.858 261.055 202.329 261.137 201.714 261.137C201.19 261.137 200.736 261.096 200.354 261.014C199.971 260.932 199.636 260.815 199.349 260.665V259.619C199.654 259.77 200.019 259.906 200.442 260.029C200.866 260.152 201.299 260.214 201.741 260.214C202.388 260.214 202.858 260.109 203.149 259.899C203.441 259.69 203.587 259.405 203.587 259.045C203.587 258.84 203.528 258.66 203.409 258.505C203.295 258.345 203.102 258.193 202.828 258.047C202.555 257.896 202.176 257.732 201.693 257.555C201.215 257.372 200.8 257.192 200.449 257.015C200.103 256.832 199.834 256.611 199.643 256.352C199.456 256.092 199.362 255.755 199.362 255.34C199.362 254.706 199.618 254.221 200.128 253.884C200.643 253.542 201.317 253.371 202.151 253.371C202.603 253.371 203.024 253.417 203.416 253.508C203.812 253.594 204.182 253.713 204.523 253.863L204.141 254.772C203.831 254.64 203.5 254.529 203.149 254.438C202.799 254.346 202.441 254.301 202.076 254.301C201.552 254.301 201.149 254.387 200.866 254.561C200.588 254.734 200.449 254.971 200.449 255.271C200.449 255.504 200.513 255.695 200.641 255.846C200.773 255.996 200.982 256.137 201.27 256.27C201.557 256.402 201.935 256.557 202.404 256.734C202.874 256.908 203.279 257.088 203.621 257.274C203.963 257.457 204.225 257.68 204.407 257.944C204.594 258.204 204.688 258.539 204.688 258.949ZM208.933 260.207C209.119 260.207 209.311 260.191 209.507 260.159C209.703 260.127 209.862 260.089 209.985 260.043V260.925C209.853 260.984 209.669 261.034 209.432 261.075C209.199 261.116 208.971 261.137 208.748 261.137C208.352 261.137 207.992 261.068 207.668 260.932C207.344 260.79 207.085 260.553 206.889 260.221C206.697 259.888 206.602 259.428 206.602 258.84V254.396H205.535V253.843L206.608 253.398L207.06 251.771H207.743V253.508H209.938V254.396H207.743V258.806C207.743 259.275 207.85 259.626 208.064 259.858C208.283 260.091 208.573 260.207 208.933 260.207ZM212.638 253.508V261H211.503V253.508H212.638ZM212.084 250.705C212.271 250.705 212.43 250.767 212.562 250.89C212.699 251.008 212.768 251.195 212.768 251.45C212.768 251.701 212.699 251.888 212.562 252.011C212.43 252.134 212.271 252.195 212.084 252.195C211.888 252.195 211.724 252.134 211.592 252.011C211.464 251.888 211.4 251.701 211.4 251.45C211.4 251.195 211.464 251.008 211.592 250.89C211.724 250.767 211.888 250.705 212.084 250.705ZM220.068 264.35V261.137C220.068 260.959 220.073 260.754 220.082 260.521C220.091 260.289 220.107 260.089 220.13 259.92H220.055C219.845 260.266 219.547 260.556 219.159 260.788C218.772 261.021 218.273 261.137 217.662 261.137C216.746 261.137 216.01 260.813 215.454 260.166C214.898 259.519 214.62 258.553 214.62 257.268C214.62 256.424 214.748 255.714 215.003 255.135C215.258 254.556 215.618 254.118 216.083 253.822C216.552 253.521 217.099 253.371 217.724 253.371C218.321 253.371 218.808 253.49 219.187 253.727C219.565 253.959 219.861 254.244 220.075 254.581H220.13L220.301 253.508H221.203V264.35H220.068ZM217.874 260.193C218.403 260.193 218.826 260.095 219.146 259.899C219.465 259.699 219.697 259.398 219.843 258.997C219.993 258.596 220.073 258.097 220.082 257.5V257.261C220.082 256.295 219.918 255.563 219.59 255.066C219.262 254.565 218.69 254.314 217.874 254.314C217.172 254.314 216.65 254.583 216.309 255.121C215.967 255.654 215.796 256.379 215.796 257.295C215.796 258.211 215.967 258.924 216.309 259.435C216.65 259.94 217.172 260.193 217.874 260.193ZM229.803 253.508V261H228.873L228.709 259.947H228.647C228.493 260.207 228.292 260.426 228.046 260.604C227.8 260.781 227.522 260.913 227.212 261C226.907 261.091 226.581 261.137 226.234 261.137C225.642 261.137 225.145 261.041 224.744 260.85C224.343 260.658 224.04 260.362 223.835 259.961C223.634 259.56 223.534 259.045 223.534 258.416V253.508H224.683V258.334C224.683 258.958 224.824 259.425 225.106 259.735C225.389 260.041 225.82 260.193 226.398 260.193C226.954 260.193 227.396 260.089 227.725 259.879C228.057 259.669 228.297 259.362 228.442 258.956C228.588 258.546 228.661 258.045 228.661 257.452V253.508H229.803ZM235.087 253.371C235.725 253.371 236.272 253.512 236.728 253.795C237.183 254.077 237.532 254.474 237.773 254.984C238.015 255.49 238.136 256.083 238.136 256.762V257.466H232.961C232.975 258.345 233.193 259.015 233.617 259.476C234.041 259.936 234.638 260.166 235.408 260.166C235.882 260.166 236.301 260.123 236.666 260.036C237.031 259.95 237.409 259.822 237.801 259.653V260.651C237.423 260.82 237.047 260.943 236.673 261.021C236.304 261.098 235.866 261.137 235.36 261.137C234.64 261.137 234.011 260.991 233.474 260.699C232.94 260.403 232.526 259.97 232.229 259.4C231.933 258.831 231.785 258.133 231.785 257.309C231.785 256.502 231.92 255.805 232.188 255.217C232.462 254.624 232.845 254.169 233.337 253.85C233.834 253.531 234.417 253.371 235.087 253.371ZM235.073 254.301C234.467 254.301 233.984 254.499 233.624 254.896C233.264 255.292 233.05 255.846 232.981 256.557H236.946C236.942 256.11 236.871 255.718 236.734 255.381C236.602 255.039 236.399 254.775 236.126 254.588C235.853 254.396 235.502 254.301 235.073 254.301ZM239.893 260.289C239.893 259.97 239.97 259.744 240.125 259.612C240.28 259.476 240.469 259.407 240.692 259.407C240.925 259.407 241.121 259.476 241.28 259.612C241.44 259.744 241.52 259.97 241.52 260.289C241.52 260.604 241.44 260.834 241.28 260.979C241.121 261.121 240.925 261.191 240.692 261.191C240.469 261.191 240.28 261.121 240.125 260.979C239.97 260.834 239.893 260.604 239.893 260.289Z" fill="#6A859C"/>
<path d="M43.9707 172L42.2129 167.469H36.4902L34.7422 172H33.0625L38.6484 157.664H40.1426L45.6895 172H43.9707ZM41.7148 165.994L40.0449 161.492C40.0059 161.375 39.9408 161.183 39.8496 160.916C39.765 160.649 39.6771 160.372 39.5859 160.086C39.4948 159.799 39.4199 159.568 39.3613 159.393C39.2962 159.66 39.2246 159.926 39.1465 160.193C39.0749 160.454 39.0033 160.698 38.9316 160.926C38.86 161.147 38.7982 161.336 38.7461 161.492L37.0469 165.994H41.7148ZM70.8926 157.723L67.0742 172H65.4043L62.5723 162.391C62.4876 162.117 62.4062 161.844 62.3281 161.57C62.2565 161.29 62.1882 161.027 62.123 160.779C62.0579 160.525 62.0026 160.304 61.957 160.115C61.918 159.92 61.8887 159.773 61.8691 159.676C61.8561 159.773 61.8301 159.917 61.791 160.105C61.7585 160.294 61.7129 160.512 61.6543 160.76C61.6022 161.007 61.5371 161.271 61.459 161.551C61.3874 161.831 61.3092 162.114 61.2246 162.4L58.4707 172H56.8008L53.0117 157.723H54.7402L57.0352 166.678C57.1133 166.977 57.1849 167.273 57.25 167.566C57.3216 167.853 57.3835 168.133 57.4355 168.406C57.4941 168.68 57.5462 168.947 57.5918 169.207C57.6374 169.467 57.6797 169.721 57.7188 169.969C57.7513 169.715 57.7936 169.451 57.8457 169.178C57.8978 168.898 57.9531 168.615 58.0117 168.328C58.0768 168.042 58.1452 167.752 58.2168 167.459C58.2949 167.166 58.3763 166.873 58.4609 166.58L61.0293 157.723H62.7383L65.4141 166.648C65.5052 166.954 65.5898 167.257 65.668 167.557C65.7461 167.856 65.8145 168.149 65.873 168.436C65.9382 168.715 65.9935 168.986 66.0391 169.246C66.0911 169.5 66.1367 169.741 66.1758 169.969C66.2214 169.65 66.2767 169.314 66.3418 168.963C66.4069 168.611 66.4818 168.243 66.5664 167.859C66.6576 167.475 66.7552 167.078 66.8594 166.668L69.1543 157.723H70.8926ZM88.0977 172H80.1484V157.723H88.0977V159.188H81.8086V163.807H87.7363V165.252H81.8086V170.535H88.0977V172ZM106.318 168.201C106.318 169.048 106.107 169.77 105.684 170.369C105.267 170.962 104.681 171.414 103.926 171.727C103.171 172.039 102.282 172.195 101.26 172.195C100.719 172.195 100.208 172.169 99.7266 172.117C99.2448 172.065 98.8021 171.99 98.3984 171.893C97.9948 171.795 97.64 171.674 97.334 171.531V169.939C97.8223 170.141 98.418 170.33 99.1211 170.506C99.8242 170.675 100.56 170.76 101.328 170.76C102.044 170.76 102.65 170.665 103.145 170.477C103.639 170.281 104.014 170.005 104.268 169.646C104.528 169.282 104.658 168.846 104.658 168.338C104.658 167.85 104.551 167.443 104.336 167.117C104.121 166.785 103.763 166.486 103.262 166.219C102.767 165.945 102.09 165.656 101.23 165.35C100.625 165.135 100.091 164.9 99.6289 164.646C99.1667 164.386 98.7793 164.093 98.4668 163.768C98.1543 163.442 97.9167 163.064 97.7539 162.635C97.5977 162.205 97.5195 161.714 97.5195 161.16C97.5195 160.398 97.7116 159.747 98.0957 159.207C98.4863 158.66 99.0234 158.243 99.707 157.957C100.397 157.664 101.188 157.518 102.08 157.518C102.842 157.518 103.545 157.589 104.189 157.732C104.84 157.876 105.436 158.068 105.977 158.309L105.459 159.734C104.945 159.52 104.398 159.34 103.818 159.197C103.245 159.054 102.653 158.982 102.041 158.982C101.429 158.982 100.911 159.074 100.488 159.256C100.072 159.432 99.7526 159.682 99.5312 160.008C99.3099 160.333 99.1992 160.721 99.1992 161.17C99.1992 161.671 99.3034 162.088 99.5117 162.42C99.7266 162.752 100.065 163.048 100.527 163.309C100.996 163.562 101.615 163.829 102.383 164.109C103.223 164.415 103.936 164.741 104.521 165.086C105.107 165.424 105.553 165.841 105.859 166.336C106.165 166.824 106.318 167.446 106.318 168.201ZM128.621 164.842C128.621 165.942 128.481 166.945 128.201 167.85C127.921 168.748 127.505 169.523 126.951 170.174C126.404 170.818 125.724 171.316 124.91 171.668C124.096 172.02 123.152 172.195 122.078 172.195C120.971 172.195 120.005 172.02 119.178 171.668C118.357 171.316 117.674 170.815 117.127 170.164C116.587 169.513 116.18 168.735 115.906 167.83C115.639 166.925 115.506 165.923 115.506 164.822C115.506 163.364 115.747 162.085 116.229 160.984C116.71 159.884 117.439 159.028 118.416 158.416C119.399 157.804 120.63 157.498 122.107 157.498C123.52 157.498 124.708 157.801 125.672 158.406C126.642 159.012 127.374 159.865 127.869 160.965C128.37 162.059 128.621 163.351 128.621 164.842ZM117.254 164.842C117.254 166.053 117.426 167.101 117.771 167.986C118.117 168.872 118.644 169.555 119.354 170.037C120.07 170.519 120.978 170.76 122.078 170.76C123.185 170.76 124.09 170.519 124.793 170.037C125.503 169.555 126.027 168.872 126.365 167.986C126.704 167.101 126.873 166.053 126.873 164.842C126.873 162.999 126.486 161.561 125.711 160.525C124.943 159.484 123.742 158.963 122.107 158.963C121.001 158.963 120.089 159.201 119.373 159.676C118.657 160.151 118.123 160.828 117.771 161.707C117.426 162.579 117.254 163.624 117.254 164.842ZM145.084 172L140.289 159.363H140.211C140.237 159.63 140.26 159.956 140.279 160.34C140.299 160.724 140.315 161.144 140.328 161.6C140.341 162.049 140.348 162.508 140.348 162.977V172H138.805V157.723H141.266L145.787 169.598H145.855L150.445 157.723H152.887V172H151.246V162.859C151.246 162.436 151.253 162.013 151.266 161.59C151.279 161.16 151.295 160.757 151.314 160.379C151.334 159.995 151.354 159.663 151.373 159.383H151.295L146.441 172H145.084ZM171.742 172H163.793V157.723H171.742V159.188H165.453V163.807H171.381V165.252H165.453V170.535H171.742V172ZM200.205 158.982C199.417 158.982 198.708 159.119 198.076 159.393C197.451 159.66 196.917 160.05 196.475 160.564C196.038 161.072 195.703 161.688 195.469 162.41C195.234 163.133 195.117 163.947 195.117 164.852C195.117 166.049 195.303 167.091 195.674 167.977C196.051 168.855 196.611 169.536 197.354 170.018C198.102 170.499 199.036 170.74 200.156 170.74C200.794 170.74 201.393 170.688 201.953 170.584C202.52 170.473 203.07 170.337 203.604 170.174V171.619C203.083 171.814 202.536 171.958 201.963 172.049C201.39 172.146 200.71 172.195 199.922 172.195C198.47 172.195 197.256 171.896 196.279 171.297C195.309 170.691 194.58 169.839 194.092 168.738C193.61 167.638 193.369 166.339 193.369 164.842C193.369 163.761 193.519 162.775 193.818 161.883C194.124 160.984 194.567 160.21 195.146 159.559C195.732 158.908 196.449 158.406 197.295 158.055C198.148 157.697 199.124 157.518 200.225 157.518C200.947 157.518 201.644 157.589 202.314 157.732C202.985 157.876 203.59 158.081 204.131 158.348L203.467 159.754C203.011 159.546 202.51 159.367 201.963 159.217C201.423 159.061 200.837 158.982 200.205 158.982ZM226.082 164.842C226.082 165.942 225.942 166.945 225.662 167.85C225.382 168.748 224.965 169.523 224.412 170.174C223.865 170.818 223.185 171.316 222.371 171.668C221.557 172.02 220.613 172.195 219.539 172.195C218.432 172.195 217.465 172.02 216.639 171.668C215.818 171.316 215.135 170.815 214.588 170.164C214.048 169.513 213.641 168.735 213.367 167.83C213.1 166.925 212.967 165.923 212.967 164.822C212.967 163.364 213.208 162.085 213.689 160.984C214.171 159.884 214.9 159.028 215.877 158.416C216.86 157.804 218.09 157.498 219.568 157.498C220.981 157.498 222.169 157.801 223.133 158.406C224.103 159.012 224.835 159.865 225.33 160.965C225.831 162.059 226.082 163.351 226.082 164.842ZM214.715 164.842C214.715 166.053 214.887 167.101 215.232 167.986C215.577 168.872 216.105 169.555 216.814 170.037C217.531 170.519 218.439 170.76 219.539 170.76C220.646 170.76 221.551 170.519 222.254 170.037C222.964 169.555 223.488 168.872 223.826 167.986C224.165 167.101 224.334 166.053 224.334 164.842C224.334 162.999 223.947 161.561 223.172 160.525C222.404 159.484 221.202 158.963 219.568 158.963C218.462 158.963 217.55 159.201 216.834 159.676C216.118 160.151 215.584 160.828 215.232 161.707C214.887 162.579 214.715 163.624 214.715 164.842ZM247.604 164.725C247.604 166.333 247.311 167.677 246.725 168.758C246.139 169.832 245.289 170.643 244.176 171.189C243.069 171.73 241.725 172 240.143 172H236.266V157.723H240.572C242.024 157.723 243.274 157.99 244.322 158.523C245.37 159.051 246.178 159.835 246.744 160.877C247.317 161.912 247.604 163.195 247.604 164.725ZM245.855 164.783C245.855 163.501 245.641 162.443 245.211 161.609C244.788 160.776 244.163 160.158 243.336 159.754C242.516 159.344 241.51 159.139 240.318 159.139H237.926V170.574H239.947C241.913 170.574 243.388 170.089 244.371 169.119C245.361 168.149 245.855 166.704 245.855 164.783ZM265.727 172H257.777V157.723H265.727V159.188H259.438V163.807H265.365V165.252H259.438V170.535H265.727V172Z" fill="#676770"/>
<g filter="url(#filter0_d_2_37)">
<rect x="103" y="36" width="94" height="94" fill="#69B9FF"/>
<path fill-rule="evenodd" clip-rule="evenodd" d="M143.733 51.6667C141.853 51.6667 140.6 52.92 140.6 54.8V69.2133L120.86 49.4733C119.607 48.22 117.727 48.22 116.473 49.4733C115.22 50.7267 115.22 52.6067 116.473 53.86L136.213 73.6H121.8C119.92 73.6 118.667 74.8533 118.667 76.7333C118.667 78.6133 119.92 79.8667 121.8 79.8667H143.733C145.613 79.8667 146.867 78.3 146.867 76.7333V54.8C146.867 52.92 145.3 51.6667 143.733 51.6667ZM183.527 112.14L163.787 92.4H178.2C180.08 92.4 181.333 91.1467 181.333 89.2667C181.333 87.3867 180.08 86.1333 178.2 86.1333H156.267C154.387 86.1333 153.133 87.7 153.133 89.2667V111.2C153.133 113.08 154.387 114.333 156.267 114.333C158.147 114.333 159.4 113.08 159.4 111.2V96.7867L179.14 116.527C180.393 117.78 182.273 117.78 183.527 116.527C184.78 115.273 184.78 113.393 183.527 112.14Z" fill="white"/>
<rect x="108" y="41" width="84" height="84" stroke="white" stroke-width="10"/>
</g>
<defs>
<filter id="filter0_d_2_37" x="103" y="36" width="94" height="94" filterUnits="userSpaceOnUse" color-interpolation-filters="sRGB">
<feFlood flood-opacity="0" result="BackgroundImageFix"/>
<feColorMatrix in="SourceAlpha" type="matrix" values="0 0 0 0 0 0 0 0 0 0 0 0 0 0 0 0 0 0 127 0" result="hardAlpha"/>
<feOffset/>
<feColorMatrix type="matrix" values="0 0 0 0 0.180392 0 0 0 0 0.615686 0 0 0 0 1 0 0 0 1 0"/>
<feBlend mode="normal" in2="BackgroundImageFix" result="effect1_dropShadow_2_37"/>
<feBlend mode="normal" in="SourceGraphic" in2="effect1_dropShadow_2_37" result="shape"/>
</filter>
</defs>
</svg>
